<?xml version="1.0" encoding="utf-8"?>
<!-- Generator: Adobe Illustrator 14.0.0, SVG Export Plug-In  -->
<!DOCTYPE svg PUBLIC "-//W3C//DTD SVG 1.1//EN" "http://www.w3.org/Graphics/SVG/1.1/DTD/svg11.dtd" [
	<!ENTITY ns_flows "http://ns.adobe.com/Flows/1.0/">
]>
<svg version="1.1"
	 xmlns="http://www.w3.org/2000/svg" xmlns:xlink="http://www.w3.org/1999/xlink" xmlns:a="http://ns.adobe.com/AdobeSVGViewerExtensions/3.0/"
	 x="0px" y="0px" width="34px" height="34px" viewBox="-0.578 -0.565 34 34" enable-background="new -0.578 -0.565 34 34"
	 xml:space="preserve">
<defs>
	
		<pattern  x="-0.578" y="33.435" width="157.955" height="157.955" patternUnits="userSpaceOnUse" id="Unnamed_Pattern" viewBox="0 -157.955 157.955 157.955" overflow="visible">
		<g>
			<polygon fill="none" points="0,-157.955 157.955,-157.955 157.955,0 0,0 			"/>
			<polygon fill="#22C3BD" points="157.955,-157.955 0,-157.955 0,0 157.955,0 			"/>
		</g>
	</pattern>
</defs>
<pattern  id="SVGID_2_" xlink:href="#Unnamed_Pattern" patternTransform="matrix(0.1133 0 0 -0.1133 -7108.4673 -7547.3125)">
</pattern>
<circle fill="url(#SVGID_2_)" cx="16.422" cy="16.418" r="16.422"/>
<path fill="none" d="M32.844,16.43c0,9.063-7.355,16.407-16.43,16.407C7.365,32.837,0,25.494,0,16.43C0,7.359,7.365,0,16.414,0
	C25.488,0,32.844,7.359,32.844,16.43z"/>
<g>
	<defs>
		<circle id="SVGID_1_" cx="16.422" cy="16.419" r="16.422"/>
	</defs>
	<clipPath id="SVGID_3_">
		<use xlink:href="#SVGID_1_"  overflow="visible"/>
	</clipPath>
	<path clip-path="url(#SVGID_3_)" fill="#0FA59D" d="M32.776,18.152c-0.011-0.039-0.036-0.076-0.065-0.105
		c-0.042-0.041-0.097-0.074-0.15-0.1c0.029,0.029-0.123-0.086-0.148-0.1c0.029,0.029-0.124-0.086-0.15-0.1
		c0.029,0.027-0.124-0.086-0.149-0.1c0.03,0.027-0.123-0.086-0.148-0.1c0.021,0.021-0.112-0.082-0.15-0.1
		c0.008,0.006,0.014,0.012,0.02,0.02l0,0c-0.047-0.052-0.106-0.085-0.168-0.119c0.028,0.027-0.125-0.086-0.149-0.1
		c0.028,0.029-0.124-0.086-0.15-0.1c0.029,0.029-0.124-0.086-0.148-0.1c0.028,0.029-0.125-0.086-0.149-0.1
		c0.028,0.029-0.124-0.086-0.149-0.1c0.028,0.029-0.125-0.086-0.149-0.1c0.028,0.028-0.124-0.086-0.149-0.1
		c0.029,0.028-0.124-0.086-0.149-0.1c0.026,0.027-0.121-0.085-0.149-0.1c0.032,0.031-0.119-0.084-0.148-0.099
		c0.031,0.031-0.122-0.085-0.15-0.1c0.032,0.032-0.121-0.086-0.149-0.1c0.029,0.03-0.122-0.086-0.148-0.099
		c0.028,0.028-0.124-0.086-0.15-0.1c0.028,0.029-0.122-0.086-0.149-0.1c0.029,0.029-0.122-0.086-0.149-0.1
		c0.029,0.028-0.123-0.086-0.15-0.1c0.029,0.028-0.121-0.086-0.148-0.1c0.029,0.029-0.122-0.086-0.149-0.1
		c0.029,0.029-0.122-0.086-0.15-0.1c0.03,0.028-0.121-0.086-0.148-0.1c0.029,0.028-0.122-0.086-0.149-0.099
		c0.029,0.028-0.122-0.086-0.149-0.1c-0.175-0.172-0.611-0.244-0.914-0.244H25.68h-0.326l0.326-0.327l1.577-1.576l1.923-1.922
		c0.382-0.383,0.57-0.818,0.42-0.967l-1.721-1.72c-0.024-0.025-0.061-0.04-0.095-0.046l1.667,1.667l-1.722-1.721
		c-0.024-0.025-0.061-0.039-0.095-0.046l-0.001-0.001l-0.053-0.053c-0.026-0.025-0.062-0.039-0.098-0.046V8.057l-0.053-0.052
		c-0.024-0.026-0.06-0.04-0.096-0.046l-0.001-0.001l-0.053-0.052c-0.024-0.025-0.061-0.04-0.096-0.046l-0.001,0l-0.052-0.053
		c-0.025-0.026-0.061-0.04-0.097-0.046l-0.001-0.001l-0.053-0.053c-0.024-0.026-0.06-0.04-0.096-0.046l-0.001-0.001l-0.052-0.052
		c-0.025-0.026-0.062-0.04-0.097-0.046l-0.001-0.002l-0.052-0.051c-0.025-0.025-0.062-0.04-0.097-0.046l1.668,1.667l-1.722-1.72
		c-0.024-0.025-0.06-0.04-0.096-0.046l-0.001-0.002l-0.052-0.052c-0.025-0.025-0.061-0.04-0.096-0.046l-0.001-0.002l-0.053-0.052
		c-0.025-0.026-0.062-0.04-0.097-0.046L26.139,7.16l-0.052-0.051c-0.025-0.026-0.062-0.041-0.097-0.046L25.989,7.06l-0.052-0.051
		c-0.024-0.026-0.062-0.041-0.096-0.047L25.841,6.96l-0.054-0.051c-0.025-0.026-0.061-0.04-0.096-0.046l-0.002-0.002l-0.01-0.01
		l-0.041-0.042c-0.026-0.025-0.062-0.04-0.096-0.046l-0.002-0.002l-0.052-0.052c-0.025-0.025-0.062-0.04-0.096-0.046l-0.002-0.002
		L25.339,6.61c-0.025-0.026-0.061-0.041-0.096-0.046l-0.002-0.002L25.19,6.511c-0.025-0.026-0.062-0.04-0.096-0.046l-0.002-0.001
		l-0.052-0.052c-0.025-0.026-0.062-0.04-0.096-0.046l-0.002-0.001l-0.052-0.052c-0.026-0.026-0.062-0.04-0.097-0.046l-0.001-0.002
		l-0.052-0.051c-0.026-0.026-0.062-0.04-0.096-0.046l-0.002-0.002l-0.052-0.051c-0.026-0.026-0.062-0.04-0.096-0.046l-0.002-0.001
		l-0.052-0.052c-0.026-0.025-0.062-0.04-0.096-0.046l-0.002-0.001l-0.052-0.053c-0.026-0.024-0.062-0.039-0.096-0.045l-0.002-0.002
		l-0.051-0.053c-0.027-0.025-0.063-0.039-0.097-0.045l-0.002-0.002l-0.053-0.052c-0.025-0.025-0.061-0.04-0.095-0.046l-0.002-0.001
		l-0.053-0.052c-0.025-0.025-0.062-0.04-0.095-0.047l-0.002,0l-0.052-0.052c-0.025-0.025-0.062-0.039-0.095-0.046L23.6,5.467
		l-0.054-0.053c-0.025-0.024-0.061-0.039-0.096-0.046l-0.001-0.001l-0.052-0.053c-0.249-0.249-0.814,0.269-0.967,0.422l-0.665,0.664
		L20.687,7.48l-1.556,1.556l0.066-0.067l0.077-0.076c-0.003-0.001-0.005-0.002-0.009-0.002h-0.068V8.869
		c0-0.031-0.038-0.078-0.081-0.078h-0.069V8.77c0-0.031-0.038-0.078-0.08-0.078h-0.068V8.67c0-0.031-0.039-0.078-0.081-0.078h-0.069
		V8.571c0-0.031-0.038-0.079-0.08-0.079h-0.069V8.471c0-0.031-0.038-0.08-0.08-0.08h-0.069v-0.02c0-0.031-0.038-0.079-0.08-0.079
		H18.3V8.271c0-0.031-0.038-0.079-0.079-0.079h-0.069V8.172c0-0.031-0.039-0.079-0.081-0.079h-0.068V8.073
		c0-0.031-0.039-0.079-0.081-0.079h-0.069V7.973c0-0.031-0.037-0.079-0.08-0.079h-0.068V7.874c0-0.031-0.039-0.079-0.081-0.079
		h-0.068v-0.02c0-0.031-0.04-0.08-0.081-0.08h-0.069v-0.02c0-0.032-0.039-0.08-0.081-0.08h-0.069V7.575
		c0-0.031-0.039-0.079-0.081-0.079h-0.068V7.475c0-0.031-0.039-0.079-0.081-0.079h-0.069V7.375c0-0.031-0.039-0.079-0.081-0.079
		h-0.069V7.276c0-0.031-0.039-0.079-0.081-0.079h-0.069V7.177c0-0.031-0.039-0.08-0.08-0.08h-0.069v-0.02
		c0-0.032-0.039-0.08-0.08-0.08h-0.069v-0.02c0-0.031-0.04-0.08-0.081-0.08h-0.068V6.877c0-0.031-0.039-0.079-0.081-0.079h-0.069
		V6.778c0-0.031-0.039-0.079-0.081-0.079H15.91V6.679c0-0.031-0.04-0.079-0.081-0.079h-2.453h-0.913
		c-0.04,0-0.078,0.048-0.078,0.079v5.874v3.797l0,0c-0.038-0.037-0.098-0.073-0.145-0.096c0.029,0.029-0.121-0.086-0.149-0.1
		c0.03,0.029-0.12-0.086-0.149-0.099c0.032,0.031-0.12-0.086-0.15-0.1c0.03,0.029-0.121-0.086-0.149-0.1
		c0.029,0.028-0.121-0.086-0.149-0.1c0.03,0.029-0.122-0.085-0.15-0.1c0.03,0.029-0.12-0.085-0.149-0.1
		c0.032,0.031-0.12-0.086-0.149-0.1c0.029,0.029-0.122-0.086-0.149-0.1c0.03,0.029-0.122-0.085-0.149-0.1
		c0.03,0.03-0.122-0.085-0.15-0.099c0.031,0.03-0.121-0.086-0.149-0.1c-0.174-0.171-0.611-0.244-0.912-0.244H7.224H3.313
		c-0.542,0-0.984,0.173-0.984,0.385v2.433c0,0.119,0.13,0.199,0.223,0.244c0,0-0.001-0.002-0.002-0.002
		c0.04,0.039,0.109,0.074,0.149,0.102c0,0,0.001,0,0.002,0c0.041,0.039,0.099,0.076,0.149,0.1c0,0-0.001,0-0.001,0
		c0.042,0.037,0.106,0.072,0.149,0.098C2.999,18.177,2.999,18.177,3,18.177c0.04,0.039,0.107,0.074,0.147,0.098
		c0.001,0.002,0.001,0.002,0.002,0.002c0.041,0.039,0.098,0.076,0.148,0.098c0,0,0,0-0.001,0c0.042,0.039,0.107,0.074,0.15,0.1
		c0,0.002,0,0.002,0.001,0.002c0.042,0.041,0.098,0.076,0.15,0.1c0,0-0.001-0.002-0.001-0.002c0.044,0.041,0.096,0.076,0.151,0.102
		c-0.001,0-0.001-0.002-0.002-0.002c0.044,0.043,0.096,0.074,0.15,0.102c0,0-0.001-0.002-0.001-0.002
		c0,0.002,0.001,0.002,0.002,0.002c0.04,0.039,0.107,0.074,0.147,0.098c0,0.002,0.001,0.002,0.002,0.002
		c0.042,0.041,0.098,0.074,0.149,0.1c0,0-0.001-0.002-0.001-0.002c0.039,0.039,0.108,0.074,0.149,0.1c0,0,0.001,0.002,0.001,0.002
		c0.042,0.041,0.097,0.074,0.15,0.098c-0.001,0-0.001,0-0.002,0c0.04,0.041,0.109,0.074,0.149,0.1
		c0.001,0.002,0.001,0.002,0.002,0.002c0.04,0.037,0.107,0.074,0.147,0.098c0,0.002,0.001,0.002,0.001,0.002
		c0.041,0.037,0.099,0.076,0.149,0.098c0,0,0,0-0.001,0c0.042,0.039,0.106,0.074,0.15,0.1c0,0.002,0.001,0.002,0.002,0.002
		c0.042,0.041,0.097,0.074,0.149,0.1c0,0-0.001,0-0.001-0.002c0.039,0.041,0.108,0.076,0.149,0.1c0,0.002,0.001,0.002,0.002,0.002
		c0.04,0.039,0.107,0.074,0.148,0.098c0,0.002,0.001,0.002,0.001,0.002c0.04,0.039,0.107,0.074,0.148,0.098
		c0,0,0.001,0.002,0.001,0.002c0.042,0.041,0.097,0.074,0.149,0.098c0,0-0.001,0-0.002,0c0.04,0.041,0.109,0.076,0.149,0.1
		c0.001,0,0.001,0.002,0.002,0.002c0.042,0.039,0.098,0.074,0.149,0.098c-0.001,0-0.001,0-0.002,0c0.04,0.039,0.108,0.076,0.149,0.1
		c0.001,0,0.001,0.002,0.002,0.002c0.04,0.037,0.107,0.074,0.148,0.098c0,0,0.001,0.002,0.002,0.002
		c0.042,0.041,0.096,0.072,0.148,0.098c0,0-0.001,0-0.001,0c0.045,0.041,0.096,0.074,0.15,0.102c0,0,0-0.002-0.001-0.002
		c0,0.002,0.001,0.002,0.002,0.002c0.042,0.039,0.098,0.074,0.149,0.1c0,0-0.001,0-0.001-0.002c0.001,0.002,0.001,0.002,0.002,0.004
		c0.223,0.209,0.623,0.238,0.911,0.238h4.59v3.846v1.307c0,0.037,0.039,0.078,0.078,0.078h0.071v0.021
		c0,0.037,0.039,0.078,0.078,0.078h0.072v0.021c0,0.037,0.039,0.078,0.078,0.078h0.072v0.021c0,0.037,0.039,0.078,0.078,0.078h0.071
		v0.021c0,0.037,0.039,0.078,0.078,0.078h0.071v0.021c0,0.037,0.04,0.078,0.078,0.078h0.072v0.021c0,0.037,0.039,0.078,0.078,0.078
		h0.017h0.055v0.021c0,0.037,0.039,0.076,0.077,0.076h0.072v0.023c0,0.037,0.039,0.076,0.077,0.076h0.072v0.023
		c0,0.037,0.039,0.078,0.078,0.078h0.071v0.021c0,0.037,0.039,0.078,0.078,0.078h0.072v0.021c0,0.037,0.039,0.078,0.078,0.078h0.072
		v0.021c0,0.037,0.039,0.078,0.078,0.078h0.072v0.021c0,0.037,0.039,0.078,0.078,0.078h0.071v0.021c0,0.037,0.039,0.078,0.078,0.078
		h0.072v0.021c0,0.037,0.039,0.078,0.078,0.078h0.072v0.021c0,0.037,0.039,0.078,0.077,0.078h0.072v0.021
		c0,0.037,0.039,0.076,0.077,0.076h0.072v0.023c0,0.037,0.039,0.076,0.078,0.076h0.072v0.023c0,0.037,0.039,0.076,0.078,0.076h0.072
		v0.023c0,0.037,0.039,0.076,0.078,0.076h0.072v0.023c0,0.037,0.039,0.076,0.078,0.076h0.072v0.023c0,0.037,0.039,0.076,0.078,0.076
		h0.071v0.023c0,0.037,0.039,0.078,0.078,0.078h0.071v0.021c0,0.037,0.039,0.078,0.078,0.078h0.072v0.021
		c0,0.037,0.039,0.078,0.078,0.078h0.071v0.021c0,0.037,0.04,0.076,0.078,0.076h0.072v0.023c0,0.037,0.039,0.076,0.078,0.076h0.071
		v0.023c0,0.037,0.039,0.076,0.078,0.076h0.071v0.023c0,0.037,0.039,0.076,0.078,0.076h0.072v0.023c0,0.037,0.039,0.076,0.078,0.076
		h2.583h0.782c0.043,0,0.082-0.039,0.082-0.076v-4.205l2.036,2.035c0.128,0.129,0.269,0.242,0.424,0.334
		c-0.002,0-0.003,0-0.004-0.002c0.05,0.035,0.1,0.07,0.15,0.102c0-0.002-0.001-0.002-0.002-0.002c0.05,0.035,0.101,0.07,0.154,0.102
		c-0.001,0-0.003-0.002-0.004-0.002c0.047,0.037,0.1,0.07,0.152,0.102c-0.002,0-0.003,0-0.003-0.002
		c0.048,0.037,0.101,0.07,0.152,0.104c-0.001-0.002-0.002-0.002-0.003-0.004c0.048,0.039,0.101,0.07,0.153,0.104
		c-0.001-0.002-0.002-0.002-0.004-0.004c0.042,0.033,0.128,0.088,0.148,0.1c0.049,0.037,0.102,0.07,0.153,0.104
		c-0.001-0.002-0.002-0.002-0.003-0.004c0.049,0.035,0.1,0.07,0.151,0.102l-0.002-0.002c0.04,0.029,0.128,0.088,0.148,0.1
		c0.05,0.037,0.102,0.07,0.153,0.102c-0.001,0-0.001,0-0.003-0.002c0.048,0.037,0.101,0.07,0.152,0.102
		c-0.001,0-0.002-0.002-0.004-0.002c0.05,0.035,0.1,0.07,0.152,0.102c-0.001-0.002-0.003-0.002-0.003-0.002
		c0.051,0.035,0.102,0.068,0.154,0.102c-0.001,0-0.002-0.002-0.004-0.002c0.048,0.037,0.1,0.07,0.152,0.102
		c-0.001-0.002-0.002-0.002-0.004-0.002c0.05,0.037,0.102,0.07,0.154,0.102c-0.001,0-0.003-0.002-0.005-0.002
		c0.049,0.037,0.102,0.07,0.153,0.102c-0.001,0-0.002-0.002-0.004-0.002c0.036,0.029,0.139,0.094,0.15,0.102
		c0.033,0.023,0.142,0.094,0.149,0.1c0.05,0.033,0.1,0.068,0.151,0.1c-0.001,0-0.002,0-0.003-0.002
		c0.041,0.029,0.129,0.086,0.149,0.1c0.05,0.037,0.102,0.07,0.154,0.102c-0.002,0-0.004-0.002-0.005-0.002
		c0.05,0.037,0.102,0.07,0.154,0.102c-0.002,0-0.003-0.002-0.004-0.002c0.05,0.035,0.1,0.068,0.152,0.102
		c-0.002-0.002-0.002-0.002-0.004-0.002c0.05,0.037,0.102,0.07,0.154,0.102c-0.002,0-0.004-0.002-0.005-0.002
		c0.05,0.037,0.101,0.07,0.153,0.102c0,0-0.002-0.002-0.004-0.002c0.05,0.037,0.102,0.07,0.154,0.102
		c-0.002,0-0.003-0.002-0.004-0.002c0.049,0.037,0.101,0.07,0.153,0.102c-0.002,0-0.004-0.002-0.005-0.002
		c0.043,0.031,0.128,0.088,0.15,0.1c0.048,0.037,0.101,0.07,0.153,0.102c-0.002-0.002-0.004-0.002-0.005-0.002
		c0.143,0.105,0.522,0.365,0.698,0.188l1.721-1.719c0.152-0.15-0.039-0.584-0.421-0.967l-2.847-2.848l-0.652-0.65l-0.901-0.9
		c-0.125-0.125-0.265-0.24-0.417-0.332c0.006,0.004-0.106-0.072-0.148-0.1c0.009,0.008-0.112-0.076-0.149-0.098
		c0.011,0.006-0.116-0.082-0.15-0.1c0.008,0.002-0.113-0.078-0.148-0.1c0.081,0.059-0.611-0.379-0.145-0.098
		c-0.002,0-0.004-0.002-0.005-0.004c0.006,0.006-0.11-0.076-0.149-0.1c0.006,0.006-0.114-0.076-0.149-0.1
		c0.082,0.063-0.615-0.381-0.145-0.096c-0.002,0-0.004-0.002-0.005-0.004c0.005,0.006-0.109-0.076-0.149-0.1
		c0.007,0.006-0.114-0.076-0.149-0.1c0.082,0.061-0.615-0.381-0.145-0.096c-0.002,0-0.004-0.002-0.005-0.004
		c0.005,0.004-0.106-0.072-0.149-0.098c0.01,0.006-0.112-0.078-0.149-0.1c0.011,0.008-0.116-0.082-0.149-0.1
		c0.006,0.004-0.113-0.078-0.149-0.1c0.082,0.061-0.611-0.379-0.145-0.096c-0.001-0.002-0.003-0.004-0.005-0.004
		c0.005,0.004-0.109-0.078-0.149-0.1c0.006,0.004-0.113-0.078-0.15-0.102c0.083,0.063-0.614-0.381-0.144-0.096
		c-0.001,0-0.002-0.002-0.004-0.004c0.004,0.006-0.11-0.076-0.151-0.1c0.007,0.006-0.112-0.076-0.149-0.098
		c0.083,0.059-0.612-0.381-0.143-0.098c-0.002,0-0.004-0.002-0.006-0.002c0.005,0.002-0.107-0.074-0.149-0.1
		c0.01,0.006-0.113-0.078-0.148-0.1c0.009,0.006-0.118-0.082-0.15-0.1c0.006,0.004-0.114-0.078-0.15-0.1
		c0.014,0.008-0.085-0.061-0.084-0.061v-1.619v-0.775c0.002,0,0.061,0.037,0.089,0.051H20.48c0.038,0.035,0.108,0.076,0.15,0.1
		c0.038,0.037,0.1,0.076,0.149,0.098h-0.001c0.038,0.041,0.102,0.078,0.15,0.1h-0.001c0.038,0.041,0.101,0.078,0.15,0.1l0,0
		c0.039,0.039,0.1,0.078,0.149,0.1h-0.001c0.046,0.047,0.096,0.068,0.15,0.1c0.028,0.037,0.108,0.082,0.149,0.102
		c0-0.002,0-0.002,0-0.002c0,0.002,0,0.002,0.001,0.004c0.043,0.039,0.096,0.072,0.148,0.096c0,0,0,0-0.001,0
		c0.039,0.039,0.101,0.078,0.15,0.1c0,0,0,0-0.001,0c0.039,0.039,0.101,0.078,0.15,0.1l0,0c0.038,0.039,0.099,0.078,0.149,0.1
		c0,0,0,0-0.001,0c0.038,0.037,0.107,0.08,0.15,0.1c0.038,0.039,0.1,0.078,0.149,0.102c0-0.002,0-0.002,0-0.002
		c0.038,0.039,0.1,0.078,0.149,0.102c0-0.002,0-0.002,0-0.002c0.038,0.039,0.101,0.078,0.148,0.102c0-0.002,0-0.002,0-0.002
		c0.039,0.039,0.101,0.078,0.15,0.102c0-0.002,0-0.002,0-0.002c0.039,0.039,0.1,0.076,0.149,0.102c0-0.002,0-0.002,0-0.002
		c0.038,0.039,0.101,0.078,0.148,0.102c0-0.002,0-0.002,0-0.002c0.039,0.039,0.101,0.078,0.15,0.102c0-0.002,0-0.002,0-0.002
		c0.039,0.039,0.1,0.078,0.148,0.1l0,0c0.039,0.039,0.101,0.078,0.15,0.1c-0.001,0-0.001,0-0.001,0
		c0.039,0.039,0.101,0.078,0.151,0.1c-0.001,0-0.001,0-0.001,0c0.037,0.039,0.107,0.08,0.148,0.1c0.039,0.039,0.101,0.078,0.15,0.1
		c-0.001,0-0.001,0-0.001,0c0.04,0.039,0.102,0.078,0.15,0.1c-0.001,0-0.001,0-0.001,0c0.039,0.039,0.102,0.078,0.15,0.1
		c-0.001,0-0.001,0-0.001,0c0.039,0.039,0.102,0.076,0.15,0.102c-0.001,0-0.001-0.002-0.001-0.002
		c0.04,0.039,0.102,0.076,0.15,0.102c-0.001,0-0.001-0.002-0.001-0.002c0.215,0.215,0.63,0.242,0.913,0.242h0.103h6.119
		c0.218,0,0.982-0.035,0.982-0.385v-1.92v-0.514C32.781,18.177,32.779,18.164,32.776,18.152"/>
</g>
<path fill="#FFFFFF" d="M16.059,26.16c0,0.037-0.039,0.078-0.081,0.078h-3.366c-0.039,0-0.078-0.041-0.078-0.078V6.679
	c0-0.031,0.039-0.079,0.078-0.079h3.366c0.042,0,0.081,0.048,0.081,0.079V26.16z"/>
<path fill="#FFFFFF" d="M5.682,17.636c0,0.211-0.172,0.385-0.383,0.385H2.865c-0.212,0-0.386-0.174-0.386-0.385v-2.433
	c0-0.212,0.174-0.385,0.386-0.385h2.433c0.211,0,0.383,0.173,0.383,0.385V17.636z"/>
<path fill="#FFFFFF" d="M10.667,17.636c0,0.211-0.173,0.385-0.386,0.385H7.848c-0.212,0-0.384-0.174-0.384-0.385v-2.433
	c0-0.212,0.172-0.385,0.384-0.385h2.433c0.212,0,0.386,0.173,0.386,0.385V17.636z"/>
<path fill="#FFFFFF" d="M23.461,17.636c0,0.211-0.173,0.385-0.387,0.385h-2.43c-0.212,0-0.386-0.174-0.386-0.385v-2.433
	c0-0.212,0.174-0.385,0.386-0.385h2.43c0.214,0,0.387,0.173,0.387,0.385V17.636z"/>
<path fill="#FFFFFF" d="M28.446,17.636c0,0.211-0.173,0.385-0.388,0.385h-2.433c-0.214,0-0.384-0.174-0.384-0.385v-2.433
	c0-0.212,0.17-0.385,0.384-0.385h2.433c0.215,0,0.388,0.173,0.388,0.385V17.636z"/>
<path fill="#FFFFFF" d="M21.805,10.619c0.157,0.156,0.157,0.399,0,0.55l-1.72,1.717c-0.149,0.15-0.394,0.15-0.54,0l-1.728-1.717
	c-0.149-0.151-0.149-0.394,0-0.55L19.545,8.9c0.146-0.149,0.391-0.149,0.54,0L21.805,10.619z"/>
<path fill="#FFFFFF" d="M25.337,7.095c0.148,0.156,0.148,0.401,0,0.548l-1.726,1.72c-0.15,0.149-0.395,0.149-0.544,0l-1.726-1.72
	c-0.152-0.147-0.152-0.392,0-0.548l1.726-1.719c0.149-0.15,0.394-0.15,0.544,0L25.337,7.095z"/>
<path fill="#FFFFFF" d="M20.085,23.939c-0.149,0.146-0.394,0.146-0.54,0l-1.728-1.721c-0.149-0.148-0.149-0.391,0-0.553l1.728-1.715
	c0.146-0.148,0.391-0.148,0.54,0l1.72,1.715c0.157,0.162,0.157,0.404,0,0.553L20.085,23.939z"/>
<path fill="#FFFFFF" d="M23.611,27.46c-0.15,0.156-0.395,0.156-0.544,0l-1.726-1.719c-0.152-0.148-0.152-0.391,0-0.549l1.726-1.719
	c0.149-0.15,0.394-0.15,0.544,0l1.726,1.719c0.148,0.158,0.148,0.4,0,0.549L23.611,27.46z"/>
</svg>
