<?xml version="1.0" encoding="utf-8"?>
<!-- Generator: Adobe Illustrator 14.0.0, SVG Export Plug-In  -->
<!DOCTYPE svg PUBLIC "-//W3C//DTD SVG 1.1//EN" "http://www.w3.org/Graphics/SVG/1.1/DTD/svg11.dtd" [
	<!ENTITY ns_flows "http://ns.adobe.com/Flows/1.0/">
]>
<svg version="1.1"
	 xmlns="http://www.w3.org/2000/svg" xmlns:xlink="http://www.w3.org/1999/xlink" xmlns:a="http://ns.adobe.com/AdobeSVGViewerExtensions/3.0/"
	 x="0px" y="0px" width="278px" height="105px" viewBox="-3.851 -3.101 278 105" enable-background="new -3.851 -3.101 278 105"
	 xml:space="preserve">
<defs>
	
		<pattern  x="-3.851" y="210.162" width="157.955" height="157.955" patternUnits="userSpaceOnUse" id="Unnamed_Pattern" viewBox="0 -157.955 157.955 157.955" overflow="visible">
		<g>
			<polygon fill="none" points="0,-157.955 157.955,-157.955 157.955,0 0,0 			"/>
			<polygon fill="#22C3BD" points="157.955,-157.955 0,-157.955 0,0 157.955,0 			"/>
		</g>
	</pattern>
</defs>
<pattern  id="SVGID_2_" xlink:href="#Unnamed_Pattern" patternTransform="matrix(0.3412 0 0 -0.3412 -5388.0586 -5803.0625)">
</pattern>
<ellipse fill="url(#SVGID_2_)" cx="49.455" cy="49.446" rx="49.455" ry="49.446"/>
<g>
	<path fill="none" stroke="#FFFFFF" stroke-width="2" d="M137.188,78.309c0.162,0.155,0.305,0.328,0.43,0.517
		c0.125,0.188,0.231,0.384,0.319,0.587c0.087,0.216,0.157,0.439,0.208,0.673c0.05,0.232,0.076,0.467,0.076,0.703v1.82
		c0,0.229-0.025,0.461-0.076,0.693c-0.051,0.232-0.12,0.457-0.208,0.673c-0.175,0.418-0.425,0.789-0.749,1.112
		c-0.324,0.324-0.695,0.573-1.113,0.749c-0.209,0.088-0.432,0.155-0.668,0.202c-0.236,0.047-0.469,0.071-0.698,0.071h-2.58v-8.498
		c0-0.088,0.033-0.165,0.101-0.233c0.067-0.067,0.148-0.101,0.243-0.101h2.236c0.229,0,0.462,0.023,0.698,0.07
		c0.236,0.048,0.459,0.118,0.668,0.213c0.209,0.088,0.408,0.192,0.597,0.313S137.032,78.141,137.188,78.309z M136.752,80.788
		c0-0.284-0.056-0.55-0.167-0.8c-0.111-0.249-0.257-0.467-0.438-0.652c-0.182-0.186-0.396-0.33-0.646-0.436
		c-0.249-0.104-0.511-0.156-0.787-0.156h-1.119v5.908c0.188,0,0.375,0.001,0.56,0.005c0.185,0.003,0.372,0.005,0.56,0.005
		c0.276,0,0.538-0.056,0.787-0.167s0.464-0.26,0.646-0.445c0.181-0.185,0.328-0.4,0.438-0.647c0.111-0.246,0.167-0.511,0.167-0.794
		V80.788z"/>
	<path fill="#339999" d="M137.188,78.309c0.162,0.155,0.305,0.328,0.43,0.517c0.125,0.188,0.231,0.384,0.319,0.587
		c0.087,0.216,0.157,0.439,0.208,0.673c0.05,0.232,0.076,0.467,0.076,0.703v1.82c0,0.229-0.025,0.461-0.076,0.693
		c-0.051,0.232-0.12,0.457-0.208,0.673c-0.175,0.418-0.425,0.789-0.749,1.112c-0.324,0.324-0.695,0.573-1.113,0.749
		c-0.209,0.088-0.432,0.155-0.668,0.202c-0.236,0.047-0.469,0.071-0.698,0.071h-2.58v-8.498c0-0.088,0.033-0.165,0.101-0.233
		c0.067-0.067,0.148-0.101,0.243-0.101h2.236c0.229,0,0.462,0.023,0.698,0.07c0.236,0.048,0.459,0.118,0.668,0.213
		c0.209,0.088,0.408,0.192,0.597,0.313S137.032,78.141,137.188,78.309z M136.752,80.788c0-0.284-0.056-0.55-0.167-0.8
		c-0.111-0.249-0.257-0.467-0.438-0.652c-0.182-0.186-0.396-0.33-0.646-0.436c-0.249-0.104-0.511-0.156-0.787-0.156h-1.119v5.908
		c0.188,0,0.375,0.001,0.56,0.005c0.185,0.003,0.372,0.005,0.56,0.005c0.276,0,0.538-0.056,0.787-0.167s0.464-0.26,0.646-0.445
		c0.181-0.185,0.328-0.4,0.438-0.647c0.111-0.246,0.167-0.511,0.167-0.794V80.788z"/>
</g>
<g>
	<path fill="none" stroke="#FFFFFF" stroke-width="2" d="M143.51,79.705h1.467v5.615c0,0.195-0.068,0.363-0.204,0.505
		c-0.136,0.143-0.306,0.213-0.509,0.213h-0.254c-0.136,0-0.253-0.047-0.352-0.142c-0.099-0.095-0.148-0.216-0.148-0.364l0.008-0.172
		l-0.162,0.182c-0.196,0.196-0.406,0.327-0.628,0.395c-0.223,0.067-0.446,0.102-0.669,0.102h-0.446
		c-0.378,0-0.737-0.081-1.074-0.243c-0.318-0.161-0.581-0.388-0.791-0.678c-0.183-0.242-0.323-0.525-0.421-0.85
		c-0.098-0.323-0.146-0.674-0.146-1.052v-3.511h1.467v3.511c0,0.209,0.027,0.404,0.081,0.587c0.054,0.182,0.118,0.333,0.191,0.455
		c0.175,0.209,0.407,0.313,0.696,0.313h0.443c0.134,0,0.282-0.067,0.443-0.202c0.162-0.135,0.316-0.32,0.464-0.557
		c0.168-0.263,0.301-0.538,0.398-0.824c0.097-0.287,0.146-0.538,0.146-0.754V79.705z"/>
	<path fill="#339999" d="M143.51,79.705h1.467v5.615c0,0.195-0.068,0.363-0.204,0.505c-0.136,0.143-0.306,0.213-0.509,0.213h-0.254
		c-0.136,0-0.253-0.047-0.352-0.142c-0.099-0.095-0.148-0.216-0.148-0.364l0.008-0.172l-0.162,0.182
		c-0.196,0.196-0.406,0.327-0.628,0.395c-0.223,0.067-0.446,0.102-0.669,0.102h-0.446c-0.378,0-0.737-0.081-1.074-0.243
		c-0.318-0.161-0.581-0.388-0.791-0.678c-0.183-0.242-0.323-0.525-0.421-0.85c-0.098-0.323-0.146-0.674-0.146-1.052v-3.511h1.467
		v3.511c0,0.209,0.027,0.404,0.081,0.587c0.054,0.182,0.118,0.333,0.191,0.455c0.175,0.209,0.407,0.313,0.696,0.313h0.443
		c0.134,0,0.282-0.067,0.443-0.202c0.162-0.135,0.316-0.32,0.464-0.557c0.168-0.263,0.301-0.538,0.398-0.824
		c0.097-0.287,0.146-0.538,0.146-0.754V79.705z"/>
</g>
<g>
	<path fill="none" stroke="#FFFFFF" stroke-width="2" d="M148.791,79.695c0.135,0,0.243,0.042,0.324,0.127
		c0.08,0.085,0.121,0.192,0.121,0.321v0.315c0,0.197-0.069,0.363-0.207,0.499c-0.139,0.136-0.303,0.204-0.491,0.204h-0.121
		c-0.142,0-0.275,0.026-0.399,0.081c-0.125,0.054-0.233,0.128-0.324,0.223c-0.091,0.094-0.165,0.204-0.223,0.328
		c-0.058,0.125-0.086,0.258-0.086,0.399V85.3c0,0.209-0.069,0.384-0.207,0.525c-0.139,0.143-0.312,0.213-0.521,0.213h-0.243
		c-0.135,0-0.248-0.048-0.339-0.142c-0.091-0.095-0.136-0.21-0.136-0.345v-5.856h1.446v0.224c0.33-0.149,0.675-0.224,1.032-0.224
		H148.791z"/>
	<path fill="#339999" d="M148.791,79.695c0.135,0,0.243,0.042,0.324,0.127c0.08,0.085,0.121,0.192,0.121,0.321v0.315
		c0,0.197-0.069,0.363-0.207,0.499c-0.139,0.136-0.303,0.204-0.491,0.204h-0.121c-0.142,0-0.275,0.026-0.399,0.081
		c-0.125,0.054-0.233,0.128-0.324,0.223c-0.091,0.094-0.165,0.204-0.223,0.328c-0.058,0.125-0.086,0.258-0.086,0.399V85.3
		c0,0.209-0.069,0.384-0.207,0.525c-0.139,0.143-0.312,0.213-0.521,0.213h-0.243c-0.135,0-0.248-0.048-0.339-0.142
		c-0.091-0.095-0.136-0.21-0.136-0.345v-5.856h1.446v0.224c0.33-0.149,0.675-0.224,1.032-0.224H148.791z"/>
</g>
<g>
	<path fill="none" stroke="#FFFFFF" stroke-width="2" d="M154.14,80.282c0.387,0.384,0.581,0.85,0.581,1.396v3.652
		c0,0.209-0.07,0.379-0.209,0.511c-0.14,0.132-0.304,0.197-0.494,0.197h-0.367c-0.095,0-0.18-0.029-0.254-0.087
		c-0.075-0.058-0.119-0.131-0.133-0.219c-0.061,0.034-0.118,0.063-0.172,0.087c-0.054,0.023-0.111,0.042-0.172,0.056
		c-0.271,0.108-0.55,0.163-0.84,0.163h-0.496c-0.546,0-1.012-0.192-1.396-0.576c-0.385-0.392-0.577-0.86-0.577-1.406v-0.203
		c0-0.303,0.058-0.586,0.172-0.85c0.115-0.263,0.28-0.499,0.496-0.708c0.513-0.465,1.237-0.698,2.175-0.698h0.789
		c-0.02-0.121-0.077-0.223-0.172-0.304c-0.095-0.08-0.206-0.121-0.334-0.121h-2.013v-1.467h2.013c0.264,0,0.517,0.051,0.761,0.151
		C153.742,79.958,153.956,80.1,154.14,80.282z M153.254,83.044h-0.8c-0.445,0-0.789,0.07-1.031,0.211
		c-0.243,0.141-0.364,0.338-0.364,0.593v0.201c0,0.147,0.05,0.271,0.151,0.372c0.102,0.1,0.226,0.15,0.374,0.15h0.496
		c0.095,0,0.209-0.023,0.344-0.07s0.27-0.128,0.405-0.241c0.147-0.114,0.256-0.234,0.323-0.362c0.067-0.127,0.102-0.284,0.102-0.472
		V83.044z"/>
	<path fill="#339999" d="M154.14,80.282c0.387,0.384,0.581,0.85,0.581,1.396v3.652c0,0.209-0.07,0.379-0.209,0.511
		c-0.14,0.132-0.304,0.197-0.494,0.197h-0.367c-0.095,0-0.18-0.029-0.254-0.087c-0.075-0.058-0.119-0.131-0.133-0.219
		c-0.061,0.034-0.118,0.063-0.172,0.087c-0.054,0.023-0.111,0.042-0.172,0.056c-0.271,0.108-0.55,0.163-0.84,0.163h-0.496
		c-0.546,0-1.012-0.192-1.396-0.576c-0.385-0.392-0.577-0.86-0.577-1.406v-0.203c0-0.303,0.058-0.586,0.172-0.85
		c0.115-0.263,0.28-0.499,0.496-0.708c0.513-0.465,1.237-0.698,2.175-0.698h0.789c-0.02-0.121-0.077-0.223-0.172-0.304
		c-0.095-0.08-0.206-0.121-0.334-0.121h-2.013v-1.467h2.013c0.264,0,0.517,0.051,0.761,0.151
		C153.742,79.958,153.956,80.1,154.14,80.282z M153.254,83.044h-0.8c-0.445,0-0.789,0.07-1.031,0.211
		c-0.243,0.141-0.364,0.338-0.364,0.593v0.201c0,0.147,0.05,0.271,0.151,0.372c0.102,0.1,0.226,0.15,0.374,0.15h0.496
		c0.095,0,0.209-0.023,0.344-0.07s0.27-0.128,0.405-0.241c0.147-0.114,0.256-0.234,0.323-0.362c0.067-0.127,0.102-0.284,0.102-0.472
		V83.044z"/>
</g>
<g>
	<path fill="none" stroke="#FFFFFF" stroke-width="2" d="M160.759,80.565c0.271,0.27,0.476,0.573,0.617,0.91
		c0.162,0.392,0.243,0.772,0.243,1.144v0.506c0,0.363-0.081,0.741-0.243,1.133c-0.142,0.344-0.347,0.65-0.617,0.92
		c-0.263,0.264-0.569,0.473-0.92,0.628c-0.371,0.155-0.749,0.232-1.134,0.232c-0.397,0-0.775-0.074-1.133-0.223
		c-0.169-0.081-0.332-0.17-0.49-0.268c-0.159-0.099-0.306-0.222-0.44-0.37h0.01c-0.142-0.142-0.263-0.288-0.363-0.439
		c-0.102-0.152-0.189-0.313-0.264-0.48c-0.067-0.162-0.121-0.343-0.162-0.541c-0.04-0.199-0.061-0.396-0.061-0.592v-5.848h1.447
		v2.813c0.054-0.034,0.107-0.061,0.161-0.081c0.055-0.021,0.108-0.044,0.162-0.071c0.385-0.154,0.763-0.232,1.133-0.232
		c0.385,0,0.763,0.078,1.134,0.232C160.189,80.093,160.496,80.302,160.759,80.565z M160.152,82.619c0-0.203-0.039-0.39-0.116-0.562
		c-0.078-0.172-0.183-0.324-0.313-0.456c-0.132-0.131-0.284-0.235-0.456-0.313c-0.172-0.077-0.358-0.116-0.562-0.116
		c-0.195,0-0.383,0.039-0.562,0.116c-0.179,0.078-0.333,0.183-0.465,0.313c-0.132,0.132-0.236,0.284-0.313,0.456
		c-0.078,0.172-0.116,0.358-0.116,0.562v0.506c0,0.202,0.038,0.389,0.116,0.561c0.077,0.173,0.182,0.324,0.313,0.456
		c0.132,0.131,0.286,0.235,0.465,0.313c0.179,0.077,0.366,0.116,0.562,0.116c0.203,0,0.39-0.039,0.562-0.116
		c0.172-0.078,0.324-0.183,0.456-0.313c0.131-0.132,0.235-0.283,0.313-0.456c0.077-0.172,0.116-0.358,0.116-0.561V82.619z"/>
	<path fill="#339999" d="M160.759,80.565c0.271,0.27,0.476,0.573,0.617,0.91c0.162,0.392,0.243,0.772,0.243,1.144v0.506
		c0,0.363-0.081,0.741-0.243,1.133c-0.142,0.344-0.347,0.65-0.617,0.92c-0.263,0.264-0.569,0.473-0.92,0.628
		c-0.371,0.155-0.749,0.232-1.134,0.232c-0.397,0-0.775-0.074-1.133-0.223c-0.169-0.081-0.332-0.17-0.49-0.268
		c-0.159-0.099-0.306-0.222-0.44-0.37h0.01c-0.142-0.142-0.263-0.288-0.363-0.439c-0.102-0.152-0.189-0.313-0.264-0.48
		c-0.067-0.162-0.121-0.343-0.162-0.541c-0.04-0.199-0.061-0.396-0.061-0.592v-5.848h1.447v2.813
		c0.054-0.034,0.107-0.061,0.161-0.081c0.055-0.021,0.108-0.044,0.162-0.071c0.385-0.154,0.763-0.232,1.133-0.232
		c0.385,0,0.763,0.078,1.134,0.232C160.189,80.093,160.496,80.302,160.759,80.565z M160.152,82.619c0-0.203-0.039-0.39-0.116-0.562
		c-0.078-0.172-0.183-0.324-0.313-0.456c-0.132-0.131-0.284-0.235-0.456-0.313c-0.172-0.077-0.358-0.116-0.562-0.116
		c-0.195,0-0.383,0.039-0.562,0.116c-0.179,0.078-0.333,0.183-0.465,0.313c-0.132,0.132-0.236,0.284-0.313,0.456
		c-0.078,0.172-0.116,0.358-0.116,0.562v0.506c0,0.202,0.038,0.389,0.116,0.561c0.077,0.173,0.182,0.324,0.313,0.456
		c0.132,0.131,0.286,0.235,0.465,0.313c0.179,0.077,0.366,0.116,0.562,0.116c0.203,0,0.39-0.039,0.562-0.116
		c0.172-0.078,0.324-0.183,0.456-0.313c0.131-0.132,0.235-0.283,0.313-0.456c0.077-0.172,0.116-0.358,0.116-0.561V82.619z"/>
</g>
<g>
	<path fill="none" stroke="#FFFFFF" stroke-width="2" d="M162.651,77.313h1.447v8.012c0,0.209-0.071,0.387-0.213,0.531
		c-0.142,0.146-0.317,0.218-0.526,0.218h-0.212c-0.148,0-0.269-0.047-0.359-0.142s-0.137-0.216-0.137-0.364V77.313z"/>
	<path fill="#339999" d="M162.651,77.313h1.447v8.012c0,0.209-0.071,0.387-0.213,0.531c-0.142,0.146-0.317,0.218-0.526,0.218h-0.212
		c-0.148,0-0.269-0.047-0.359-0.142s-0.137-0.216-0.137-0.364V77.313z"/>
</g>
<g>
	<path fill="none" stroke="#FFFFFF" stroke-width="2" d="M168.449,79.705c0.338,0,0.654,0.063,0.951,0.188s0.563,0.305,0.8,0.541
		c0.242,0.243,0.425,0.513,0.546,0.81s0.183,0.613,0.183,0.95v1.326h-2.904c-0.202,0-0.37-0.069-0.506-0.208
		c-0.135-0.138-0.202-0.309-0.202-0.511v-0.323c0-0.115,0.042-0.215,0.127-0.299c0.084-0.084,0.184-0.127,0.298-0.127h1.72
		c-0.02-0.121-0.059-0.235-0.116-0.344c-0.057-0.107-0.131-0.202-0.223-0.283c-0.091-0.081-0.193-0.144-0.309-0.188
		c-0.114-0.043-0.235-0.065-0.364-0.065h-0.395c-0.202,0-0.395,0.039-0.576,0.116c-0.182,0.078-0.341,0.185-0.476,0.319
		s-0.241,0.291-0.318,0.47c-0.078,0.179-0.116,0.369-0.116,0.572v0.435c0,0.209,0.038,0.403,0.116,0.582
		c0.077,0.179,0.184,0.335,0.318,0.47c0.135,0.136,0.294,0.241,0.476,0.319c0.182,0.077,0.374,0.116,0.576,0.116h0.395
		c0.169,0,0.326-0.037,0.471-0.111c0.146-0.074,0.265-0.176,0.359-0.304l-0.01,0.011c0.121-0.196,0.296-0.246,0.525-0.152
		l0.243,0.132c0.128,0.074,0.226,0.167,0.293,0.278s0.102,0.23,0.102,0.358c0,0.088-0.017,0.176-0.051,0.264
		c-0.033,0.087-0.088,0.165-0.162,0.232c-0.128,0.128-0.276,0.256-0.444,0.385c-0.405,0.249-0.847,0.374-1.326,0.374h-0.395
		c-0.397,0-0.778-0.077-1.143-0.232h0.01c-0.337-0.135-0.65-0.348-0.94-0.638c-0.264-0.263-0.476-0.573-0.638-0.931
		c-0.067-0.169-0.121-0.353-0.162-0.552c-0.04-0.198-0.061-0.399-0.061-0.602v-0.435c0-0.196,0.021-0.394,0.061-0.592
		c0.041-0.199,0.095-0.383,0.162-0.552c0.162-0.357,0.374-0.668,0.638-0.931c0.29-0.29,0.604-0.502,0.94-0.638h-0.01
		c0.364-0.154,0.745-0.232,1.143-0.232H168.449z"/>
	<path fill="#339999" d="M168.449,79.705c0.338,0,0.654,0.063,0.951,0.188s0.563,0.305,0.8,0.541
		c0.242,0.243,0.425,0.513,0.546,0.81s0.183,0.613,0.183,0.95v1.326h-2.904c-0.202,0-0.37-0.069-0.506-0.208
		c-0.135-0.138-0.202-0.309-0.202-0.511v-0.323c0-0.115,0.042-0.215,0.127-0.299c0.084-0.084,0.184-0.127,0.298-0.127h1.72
		c-0.02-0.121-0.059-0.235-0.116-0.344c-0.057-0.107-0.131-0.202-0.223-0.283c-0.091-0.081-0.193-0.144-0.309-0.188
		c-0.114-0.043-0.235-0.065-0.364-0.065h-0.395c-0.202,0-0.395,0.039-0.576,0.116c-0.182,0.078-0.341,0.185-0.476,0.319
		s-0.241,0.291-0.318,0.47c-0.078,0.179-0.116,0.369-0.116,0.572v0.435c0,0.209,0.038,0.403,0.116,0.582
		c0.077,0.179,0.184,0.335,0.318,0.47c0.135,0.136,0.294,0.241,0.476,0.319c0.182,0.077,0.374,0.116,0.576,0.116h0.395
		c0.169,0,0.326-0.037,0.471-0.111c0.146-0.074,0.265-0.176,0.359-0.304l-0.01,0.011c0.121-0.196,0.296-0.246,0.525-0.152
		l0.243,0.132c0.128,0.074,0.226,0.167,0.293,0.278s0.102,0.23,0.102,0.358c0,0.088-0.017,0.176-0.051,0.264
		c-0.033,0.087-0.088,0.165-0.162,0.232c-0.128,0.128-0.276,0.256-0.444,0.385c-0.405,0.249-0.847,0.374-1.326,0.374h-0.395
		c-0.397,0-0.778-0.077-1.143-0.232h0.01c-0.337-0.135-0.65-0.348-0.94-0.638c-0.264-0.263-0.476-0.573-0.638-0.931
		c-0.067-0.169-0.121-0.353-0.162-0.552c-0.04-0.198-0.061-0.399-0.061-0.602v-0.435c0-0.196,0.021-0.394,0.061-0.592
		c0.041-0.199,0.095-0.383,0.162-0.552c0.162-0.357,0.374-0.668,0.638-0.931c0.29-0.29,0.604-0.502,0.94-0.638h-0.01
		c0.364-0.154,0.745-0.232,1.143-0.232H168.449z"/>
</g>
<g>
	<path fill="#339999" d="M190.716,81.364c0.27,0.27,0.473,0.571,0.611,0.905c0.138,0.334,0.206,0.687,0.206,1.058
		s-0.069,0.723-0.207,1.057c-0.139,0.334-0.343,0.636-0.612,0.905c-0.27,0.271-0.571,0.475-0.905,0.612
		c-0.334,0.139-0.687,0.208-1.057,0.208h-2.125c-0.088,0-0.165-0.034-0.232-0.103c-0.067-0.067-0.102-0.146-0.102-0.234v-0.356
		c0-0.217,0.076-0.4,0.228-0.55c0.152-0.149,0.329-0.225,0.531-0.225l1.7,0.011c0.182,0,0.352-0.035,0.511-0.105
		c0.158-0.071,0.298-0.167,0.42-0.288c0.121-0.121,0.216-0.26,0.283-0.418s0.101-0.331,0.101-0.519c0-0.182-0.033-0.35-0.101-0.504
		c-0.067-0.155-0.162-0.293-0.283-0.413c-0.122-0.121-0.262-0.217-0.42-0.288c-0.159-0.07-0.329-0.105-0.511-0.105h-0.598
		c-0.323,0-0.627-0.061-0.91-0.183c-0.283-0.121-0.54-0.294-0.769-0.517c-0.223-0.224-0.394-0.479-0.511-0.766
		c-0.118-0.287-0.178-0.593-0.178-0.918c0-0.311,0.06-0.609,0.178-0.896c0.117-0.288,0.288-0.543,0.511-0.766
		c0.465-0.467,1.024-0.7,1.679-0.7h2.398c0.094,0,0.175,0.034,0.242,0.103c0.067,0.067,0.102,0.146,0.102,0.234v0.366
		c0,0.211-0.074,0.391-0.223,0.54s-0.331,0.225-0.547,0.225h-1.966c-0.127,0-0.247,0.023-0.357,0.07
		c-0.111,0.047-0.205,0.113-0.282,0.197c-0.077,0.085-0.142,0.181-0.191,0.288c-0.051,0.108-0.076,0.223-0.076,0.345
		c0,0.128,0.025,0.247,0.076,0.358s0.114,0.208,0.191,0.289c0.077,0.08,0.172,0.145,0.282,0.191c0.111,0.048,0.23,0.071,0.358,0.071
		h0.596c0.37,0,0.722,0.069,1.055,0.207C190.146,80.891,190.447,81.095,190.716,81.364z"/>
</g>
<g>
	<path fill="#339999" d="M192.504,77.136h1.447v1.021c0,0.162-0.06,0.304-0.178,0.425s-0.261,0.183-0.43,0.183h-0.435
		c-0.115,0-0.211-0.041-0.289-0.122c-0.077-0.081-0.116-0.175-0.116-0.283V77.136z M192.504,79.695h1.447v5.594
		c0,0.209-0.071,0.387-0.213,0.531c-0.142,0.146-0.317,0.218-0.526,0.218H193c-0.148,0-0.269-0.047-0.359-0.142
		s-0.137-0.216-0.137-0.364V79.695z"/>
</g>
<g>
	<path fill="#339999" d="M200.797,79.705c0.277,0,0.533,0.056,0.771,0.167c0.236,0.111,0.438,0.274,0.607,0.49l-0.01-0.01
		c0.148,0.176,0.26,0.381,0.334,0.617s0.111,0.482,0.111,0.738v3.49c0,0.229-0.083,0.427-0.249,0.592
		c-0.167,0.165-0.365,0.248-0.596,0.248h-0.214c-0.109,0-0.204-0.039-0.286-0.116c-0.081-0.077-0.122-0.17-0.122-0.277v-3.928
		c0-0.033-0.003-0.08-0.01-0.141s-0.023-0.121-0.051-0.182s-0.063-0.113-0.106-0.157c-0.044-0.043-0.105-0.065-0.187-0.065h-0.455
		c-0.027,0-0.066,0.007-0.117,0.021c-0.05,0.014-0.105,0.033-0.167,0.061c-0.061,0.026-0.123,0.061-0.187,0.101
		c-0.064,0.041-0.123,0.088-0.177,0.142v-0.01c-0.081,0.101-0.134,0.207-0.157,0.317c-0.023,0.111-0.035,0.211-0.035,0.298v3.069
		c0,0.114-0.022,0.224-0.066,0.328s-0.104,0.193-0.182,0.268c-0.078,0.074-0.167,0.133-0.269,0.177
		c-0.101,0.043-0.209,0.065-0.323,0.065h-0.223c-0.108,0-0.202-0.04-0.283-0.121s-0.121-0.172-0.121-0.272v-3.897
		c0-0.033-0.004-0.08-0.011-0.141s-0.021-0.121-0.045-0.182s-0.059-0.113-0.105-0.157c-0.047-0.043-0.11-0.065-0.191-0.065h-0.452
		c-0.027,0-0.065,0.007-0.115,0.021c-0.051,0.014-0.106,0.033-0.166,0.061c-0.061,0.026-0.123,0.061-0.187,0.101
		c-0.063,0.041-0.122,0.088-0.176,0.142v-0.01c-0.08,0.101-0.133,0.207-0.156,0.317c-0.023,0.111-0.035,0.211-0.035,0.298v3.1
		c0,0.229-0.081,0.426-0.244,0.591s-0.36,0.247-0.591,0.247h-0.224c-0.116,0-0.213-0.039-0.291-0.116
		c-0.078-0.078-0.117-0.171-0.117-0.278v-5.959h1.467l-0.01,0.193c0.243-0.115,0.493-0.173,0.75-0.173h0.547
		c0.514,0,0.942,0.176,1.287,0.526c0.392-0.351,0.817-0.526,1.276-0.526H200.797z"/>
</g>
<g>
	<path fill="#339999" d="M208.102,80.53c0.136,0.129,0.253,0.271,0.352,0.431c0.098,0.158,0.188,0.322,0.27,0.491
		c0.156,0.364,0.234,0.745,0.234,1.144v0.526c0,0.196-0.021,0.392-0.061,0.588c-0.041,0.195-0.099,0.377-0.173,0.546
		c-0.067,0.162-0.153,0.322-0.259,0.481c-0.104,0.158-0.225,0.306-0.359,0.44c-0.271,0.27-0.578,0.482-0.923,0.638
		c-0.365,0.148-0.747,0.223-1.146,0.223c-0.392,0-0.767-0.074-1.125-0.223c-0.054-0.021-0.092-0.034-0.111-0.04
		c-0.021-0.007-0.039-0.014-0.056-0.021c-0.018-0.007-0.036-0.017-0.057-0.03c-0.02-0.014-0.054-0.037-0.101-0.071v2.064
		c0,0.209-0.071,0.386-0.213,0.531c-0.142,0.145-0.317,0.217-0.526,0.217h-0.212c-0.148,0-0.269-0.047-0.359-0.142
		s-0.137-0.216-0.137-0.364v-5.368c0-0.398,0.074-0.78,0.223-1.145c0.088-0.169,0.179-0.332,0.273-0.491
		c0.095-0.158,0.209-0.302,0.345-0.431v0.01c0.263-0.256,0.573-0.466,0.932-0.627c0.168-0.075,0.351-0.132,0.546-0.173
		c0.196-0.04,0.389-0.061,0.578-0.061c0.195,0,0.393,0.021,0.592,0.062c0.199,0.04,0.383,0.098,0.552,0.173
		c0.358,0.163,0.665,0.373,0.922,0.632V80.53z M207.49,82.599c0-0.202-0.039-0.392-0.116-0.566
		c-0.078-0.176-0.181-0.329-0.309-0.461c-0.129-0.131-0.282-0.235-0.461-0.313c-0.179-0.077-0.369-0.116-0.571-0.116
		c-0.195,0-0.381,0.039-0.557,0.116c-0.175,0.078-0.328,0.183-0.46,0.313c-0.132,0.132-0.236,0.285-0.313,0.461
		c-0.078,0.175-0.116,0.364-0.116,0.566v0.526c0,0.202,0.038,0.389,0.116,0.561c0.077,0.173,0.182,0.324,0.313,0.456
		c0.132,0.131,0.285,0.235,0.46,0.313c0.176,0.077,0.361,0.116,0.557,0.116c0.202,0,0.393-0.039,0.571-0.116
		c0.179-0.078,0.332-0.183,0.461-0.313c0.128-0.132,0.23-0.283,0.309-0.456c0.077-0.172,0.116-0.358,0.116-0.561V82.599z"/>
</g>
<g>
	<path fill="#339999" d="M209.616,77.277h1.447v8.012c0,0.209-0.071,0.387-0.213,0.531c-0.142,0.146-0.317,0.218-0.526,0.218h-0.212
		c-0.148,0-0.269-0.047-0.359-0.142s-0.137-0.216-0.137-0.364V77.277z"/>
</g>
<g>
	<path fill="#339999" d="M215.345,79.705c0.338,0,0.654,0.063,0.951,0.188s0.563,0.305,0.8,0.541
		c0.242,0.243,0.425,0.513,0.546,0.81s0.183,0.613,0.183,0.95v1.326h-2.904c-0.202,0-0.37-0.069-0.506-0.208
		c-0.135-0.138-0.202-0.309-0.202-0.511v-0.323c0-0.115,0.042-0.215,0.127-0.299c0.084-0.084,0.184-0.127,0.298-0.127h1.72
		c-0.02-0.121-0.059-0.235-0.116-0.344c-0.057-0.107-0.131-0.202-0.223-0.283c-0.091-0.081-0.193-0.144-0.309-0.188
		c-0.114-0.043-0.235-0.065-0.364-0.065h-0.395c-0.202,0-0.395,0.039-0.576,0.116c-0.182,0.078-0.341,0.185-0.476,0.319
		s-0.241,0.291-0.318,0.47c-0.078,0.179-0.116,0.369-0.116,0.572v0.435c0,0.209,0.038,0.403,0.116,0.582
		c0.077,0.179,0.184,0.335,0.318,0.47c0.135,0.136,0.294,0.241,0.476,0.319c0.182,0.077,0.374,0.116,0.576,0.116h0.395
		c0.169,0,0.326-0.037,0.471-0.111c0.146-0.074,0.265-0.176,0.359-0.304l-0.01,0.011c0.121-0.196,0.296-0.246,0.525-0.152
		l0.243,0.132c0.128,0.074,0.226,0.167,0.293,0.278s0.102,0.23,0.102,0.358c0,0.088-0.017,0.176-0.051,0.264
		c-0.033,0.087-0.088,0.165-0.162,0.232c-0.128,0.128-0.276,0.256-0.444,0.385c-0.405,0.249-0.847,0.374-1.326,0.374h-0.395
		c-0.397,0-0.778-0.077-1.143-0.232h0.01c-0.337-0.135-0.65-0.348-0.94-0.638c-0.264-0.263-0.476-0.573-0.638-0.931
		c-0.067-0.169-0.121-0.353-0.162-0.552c-0.04-0.198-0.061-0.399-0.061-0.602v-0.435c0-0.196,0.021-0.394,0.061-0.592
		c0.041-0.199,0.095-0.383,0.162-0.552c0.162-0.357,0.374-0.668,0.638-0.931c0.29-0.29,0.604-0.502,0.94-0.638h-0.01
		c0.364-0.154,0.745-0.232,1.143-0.232H215.345z"/>
</g>
<g>
	<path fill="#339999" d="M227.63,78.157c0.593,0.587,0.89,1.292,0.89,2.114c0,0.398-0.075,0.777-0.227,1.139
		c-0.151,0.36-0.372,0.686-0.661,0.976c-0.283,0.29-0.604,0.51-0.965,0.658c-0.359,0.148-0.738,0.223-1.136,0.223h-1.493
		c-0.102,0-0.183-0.034-0.243-0.103v2.945h-1.467v-8.498c0-0.088,0.034-0.165,0.102-0.233c0.067-0.067,0.145-0.101,0.232-0.101
		h2.863c0.397,0,0.777,0.074,1.138,0.223C227.024,77.648,227.347,77.867,227.63,78.157z M223.795,82.196
		c0.067-0.115,0.158-0.21,0.272-0.285c0.114-0.074,0.245-0.112,0.394-0.112h1.069c0.208,0,0.404-0.04,0.59-0.12
		c0.185-0.081,0.346-0.19,0.484-0.328c0.138-0.138,0.247-0.299,0.327-0.484c0.081-0.185,0.121-0.385,0.121-0.6
		c0-0.208-0.04-0.406-0.121-0.595c-0.08-0.188-0.189-0.352-0.327-0.489c-0.139-0.138-0.3-0.245-0.484-0.322
		c-0.186-0.077-0.382-0.116-0.59-0.116h-1.735V82.196z"/>
</g>
<g>
	<path fill="#339999" d="M233.483,79.694h1.467v5.615c0,0.195-0.067,0.363-0.203,0.505c-0.137,0.143-0.307,0.213-0.51,0.213h-0.255
		c-0.136,0-0.253-0.047-0.352-0.142s-0.147-0.216-0.147-0.364l0.008-0.172l-0.162,0.182c-0.196,0.196-0.405,0.327-0.629,0.395
		c-0.223,0.067-0.445,0.102-0.668,0.102h-0.446c-0.379,0-0.736-0.081-1.074-0.243c-0.317-0.161-0.581-0.388-0.791-0.678
		c-0.182-0.242-0.322-0.525-0.42-0.85c-0.099-0.323-0.147-0.674-0.147-1.052v-3.511h1.467v3.511c0,0.209,0.027,0.404,0.081,0.587
		c0.054,0.182,0.117,0.333,0.191,0.455c0.175,0.209,0.406,0.313,0.695,0.313h0.444c0.134,0,0.282-0.067,0.443-0.202
		s0.315-0.32,0.464-0.557c0.168-0.263,0.301-0.538,0.397-0.824c0.098-0.287,0.146-0.538,0.146-0.754V79.694z"/>
</g>
<g>
	<path fill="#339999" d="M240.733,80.565c0.271,0.27,0.476,0.573,0.617,0.91c0.162,0.392,0.243,0.772,0.243,1.144v0.506
		c0,0.363-0.081,0.741-0.243,1.133c-0.142,0.344-0.347,0.65-0.617,0.92c-0.263,0.264-0.569,0.473-0.92,0.628
		c-0.371,0.155-0.749,0.232-1.134,0.232c-0.397,0-0.775-0.074-1.133-0.223c-0.169-0.081-0.332-0.17-0.49-0.268
		c-0.159-0.099-0.306-0.222-0.44-0.37h0.01c-0.142-0.142-0.263-0.288-0.363-0.439c-0.102-0.152-0.189-0.313-0.264-0.48
		c-0.067-0.162-0.121-0.343-0.162-0.541c-0.04-0.199-0.061-0.396-0.061-0.592v-5.848h1.447v2.813
		c0.054-0.034,0.107-0.061,0.161-0.081c0.055-0.021,0.108-0.044,0.162-0.071c0.385-0.154,0.763-0.232,1.133-0.232
		c0.385,0,0.763,0.078,1.134,0.232C240.164,80.093,240.471,80.302,240.733,80.565z M240.127,82.619c0-0.203-0.039-0.39-0.116-0.562
		c-0.078-0.172-0.183-0.324-0.313-0.456c-0.132-0.131-0.284-0.235-0.456-0.313c-0.172-0.077-0.358-0.116-0.562-0.116
		c-0.195,0-0.383,0.039-0.562,0.116c-0.179,0.078-0.333,0.183-0.465,0.313c-0.132,0.132-0.236,0.284-0.313,0.456
		c-0.078,0.172-0.116,0.358-0.116,0.562v0.506c0,0.202,0.038,0.389,0.116,0.561c0.077,0.173,0.182,0.324,0.313,0.456
		c0.132,0.131,0.286,0.235,0.465,0.313c0.179,0.077,0.366,0.116,0.562,0.116c0.203,0,0.39-0.039,0.562-0.116
		c0.172-0.078,0.324-0.183,0.456-0.313c0.131-0.132,0.235-0.283,0.313-0.456c0.077-0.172,0.116-0.358,0.116-0.561V82.619z"/>
</g>
<g>
	<path fill="#339999" d="M247.234,81.334c0.27,0.27,0.473,0.571,0.611,0.905c0.138,0.334,0.206,0.687,0.206,1.058
		s-0.069,0.723-0.207,1.057c-0.139,0.334-0.343,0.636-0.612,0.905c-0.27,0.271-0.571,0.475-0.905,0.612
		c-0.334,0.139-0.687,0.208-1.057,0.208h-2.125c-0.088,0-0.165-0.034-0.232-0.103c-0.067-0.067-0.102-0.146-0.102-0.234v-0.356
		c0-0.217,0.076-0.4,0.228-0.55c0.152-0.149,0.329-0.225,0.531-0.225l1.7,0.011c0.182,0,0.352-0.035,0.511-0.105
		c0.158-0.071,0.298-0.167,0.42-0.288c0.121-0.121,0.216-0.26,0.283-0.418s0.101-0.331,0.101-0.519c0-0.182-0.033-0.35-0.101-0.504
		c-0.067-0.155-0.162-0.293-0.283-0.413c-0.122-0.121-0.262-0.217-0.42-0.288c-0.159-0.07-0.329-0.105-0.511-0.105h-0.598
		c-0.323,0-0.627-0.061-0.91-0.183c-0.283-0.121-0.54-0.294-0.769-0.517c-0.223-0.224-0.394-0.479-0.511-0.766
		c-0.118-0.287-0.178-0.593-0.178-0.918c0-0.311,0.06-0.609,0.178-0.896c0.117-0.288,0.288-0.543,0.511-0.766
		c0.465-0.467,1.024-0.7,1.679-0.7h2.398c0.094,0,0.175,0.034,0.242,0.103c0.067,0.067,0.102,0.146,0.102,0.234v0.366
		c0,0.211-0.074,0.391-0.223,0.54s-0.331,0.225-0.547,0.225h-1.966c-0.127,0-0.247,0.023-0.357,0.07
		c-0.111,0.047-0.205,0.113-0.282,0.197c-0.077,0.085-0.142,0.181-0.191,0.288c-0.051,0.108-0.076,0.223-0.076,0.345
		c0,0.128,0.025,0.247,0.076,0.358s0.114,0.208,0.191,0.289c0.077,0.08,0.172,0.145,0.282,0.191c0.111,0.048,0.23,0.071,0.358,0.071
		h0.596c0.37,0,0.722,0.069,1.055,0.207C246.664,80.86,246.966,81.064,247.234,81.334z"/>
</g>
<g>
	<path fill="#339999" d="M253.074,79.705h1.467v5.615c0,0.195-0.067,0.363-0.203,0.505c-0.137,0.143-0.307,0.213-0.51,0.213h-0.255
		c-0.136,0-0.253-0.047-0.352-0.142s-0.147-0.216-0.147-0.364l0.008-0.172l-0.162,0.182c-0.196,0.196-0.405,0.327-0.629,0.395
		c-0.223,0.067-0.445,0.102-0.668,0.102h-0.446c-0.379,0-0.736-0.081-1.074-0.243c-0.317-0.161-0.581-0.388-0.791-0.678
		c-0.182-0.242-0.322-0.525-0.42-0.85c-0.099-0.323-0.147-0.674-0.147-1.052v-3.511h1.467v3.511c0,0.209,0.027,0.404,0.081,0.587
		c0.054,0.182,0.117,0.333,0.191,0.455c0.175,0.209,0.406,0.313,0.695,0.313h0.444c0.134,0,0.282-0.067,0.443-0.202
		s0.315-0.32,0.464-0.557c0.168-0.263,0.301-0.538,0.397-0.824c0.098-0.287,0.146-0.538,0.146-0.754V79.705z"/>
</g>
<g>
	<path fill="#339999" d="M260.459,80.565c0.271,0.27,0.476,0.573,0.617,0.91c0.162,0.392,0.243,0.772,0.243,1.144v0.506
		c0,0.363-0.081,0.741-0.243,1.133c-0.142,0.344-0.347,0.65-0.617,0.92c-0.263,0.264-0.569,0.473-0.92,0.628
		c-0.371,0.155-0.749,0.232-1.134,0.232c-0.397,0-0.775-0.074-1.133-0.223c-0.169-0.081-0.332-0.17-0.49-0.268
		c-0.159-0.099-0.306-0.222-0.44-0.37h0.01c-0.142-0.142-0.263-0.288-0.363-0.439c-0.102-0.152-0.189-0.313-0.264-0.48
		c-0.067-0.162-0.121-0.343-0.162-0.541c-0.04-0.199-0.061-0.396-0.061-0.592v-5.848h1.447v2.813
		c0.054-0.034,0.107-0.061,0.161-0.081c0.055-0.021,0.108-0.044,0.162-0.071c0.385-0.154,0.763-0.232,1.133-0.232
		c0.385,0,0.763,0.078,1.134,0.232C259.89,80.093,260.196,80.302,260.459,80.565z M259.853,82.619c0-0.203-0.039-0.39-0.116-0.562
		c-0.078-0.172-0.183-0.324-0.313-0.456c-0.132-0.131-0.284-0.235-0.456-0.313c-0.172-0.077-0.358-0.116-0.562-0.116
		c-0.195,0-0.383,0.039-0.562,0.116c-0.179,0.078-0.333,0.183-0.465,0.313c-0.132,0.132-0.236,0.284-0.313,0.456
		c-0.078,0.172-0.116,0.358-0.116,0.562v0.506c0,0.202,0.038,0.389,0.116,0.561c0.077,0.173,0.182,0.324,0.313,0.456
		c0.132,0.131,0.286,0.235,0.465,0.313c0.179,0.077,0.366,0.116,0.562,0.116c0.203,0,0.39-0.039,0.562-0.116
		c0.172-0.078,0.324-0.183,0.456-0.313c0.131-0.132,0.235-0.283,0.313-0.456c0.077-0.172,0.116-0.358,0.116-0.561V82.619z"/>
</g>
<path fill="#339999" d="M271.744,72.903c0.007-0.142-0.021-0.282-0.115-0.394l-9.376-10.959c-0.206-0.24-0.564-0.268-0.803-0.063
	c-0.238,0.203-0.267,0.563-0.063,0.801l8.573,10.021H115.565c-0.314,0-0.569,0.254-0.569,0.568l0.021,0.102
	c-0.006,0.142,0.021,0.281,0.116,0.393l9.376,10.961c0.112,0.132,0.272,0.199,0.433,0.199c0.13,0,0.262-0.045,0.369-0.137
	c0.239-0.203,0.267-0.563,0.063-0.801L116.8,73.572h154.396c0.314,0,0.568-0.254,0.568-0.568L271.744,72.903z"/>
<g>
	<path fill="#339999" d="M145.754,29.24c0.816,0.783,1.538,1.649,2.168,2.601c0.629,0.952,1.164,1.938,1.605,2.958
		c0.441,1.089,0.791,2.219,1.047,3.392c0.254,1.173,0.381,2.355,0.381,3.545v9.181c0,1.156-0.127,2.32-0.381,3.494
		c-0.256,1.173-0.605,2.304-1.047,3.392c-0.885,2.108-2.141,3.978-3.774,5.611c-1.632,1.631-3.502,2.889-5.61,3.773
		c-1.054,0.441-2.176,0.781-3.366,1.02c-1.191,0.238-2.364,0.357-3.52,0.357h-13.005V25.72c0-0.441,0.169-0.833,0.51-1.173
		c0.34-0.339,0.748-0.51,1.224-0.51h11.271c1.156,0,2.329,0.119,3.52,0.357c1.19,0.238,2.312,0.595,3.366,1.071
		c1.054,0.442,2.058,0.969,3.01,1.581C144.105,27.659,144.972,28.39,145.754,29.24z M143.562,41.735c0-1.428-0.28-2.771-0.84-4.029
		c-0.56-1.257-1.296-2.354-2.211-3.29c-0.915-0.935-2-1.666-3.254-2.193c-1.254-0.526-2.576-0.791-3.966-0.791h-5.643v29.786
		c0.948,0,1.889,0.008,2.821,0.025c0.933,0.017,1.873,0.025,2.822,0.025c1.39,0,2.711-0.281,3.966-0.842
		c1.254-0.561,2.339-1.309,3.254-2.244c0.915-0.935,1.651-2.022,2.211-3.264c0.56-1.241,0.84-2.576,0.84-4.003V41.735z"/>
</g>
<g>
	<path fill="#339999" d="M180.649,44.643c1.357,1.36,2.383,2.881,3.08,4.564c0.693,1.683,1.043,3.46,1.043,5.33
		c0,1.87-0.35,3.646-1.047,5.33s-1.725,3.205-3.086,4.565c-1.359,1.359-2.881,2.389-4.564,3.086
		c-1.682,0.696-3.459,1.045-5.33,1.045h-10.709c-0.443,0-0.834-0.171-1.174-0.513c-0.34-0.344-0.51-0.737-0.51-1.183V65.07
		c0-1.096,0.383-2.02,1.146-2.773c0.766-0.754,1.658-1.129,2.678-1.129l8.568,0.051c0.918,0,1.777-0.179,2.576-0.534
		c0.799-0.356,1.506-0.839,2.117-1.448c0.611-0.61,1.088-1.313,1.428-2.109c0.34-0.796,0.51-1.668,0.51-2.617
		c0-0.914-0.17-1.761-0.51-2.54s-0.816-1.474-1.428-2.083c-0.611-0.61-1.318-1.093-2.117-1.448s-1.658-0.534-2.576-0.534h-3.008
		c-1.633,0-3.162-0.306-4.59-0.92c-1.43-0.613-2.721-1.482-3.877-2.606c-1.123-1.125-1.98-2.411-2.576-3.859
		c-0.596-1.448-0.893-2.99-0.893-4.625c0-1.567,0.297-3.075,0.893-4.523c0.596-1.448,1.453-2.734,2.576-3.859
		c2.346-2.351,5.168-3.526,8.467-3.526h12.088c0.475,0,0.883,0.171,1.223,0.514s0.51,0.736,0.51,1.181v1.849
		c0,1.062-0.373,1.968-1.121,2.722c-0.748,0.754-1.666,1.13-2.754,1.13h-9.91c-0.645,0-1.246,0.12-1.805,0.357
		c-0.561,0.238-1.035,0.57-1.424,0.995c-0.389,0.425-0.711,0.91-0.965,1.454c-0.254,0.544-0.381,1.122-0.381,1.734
		c0,0.646,0.127,1.25,0.381,1.811s0.576,1.046,0.967,1.454c0.391,0.408,0.865,0.732,1.424,0.969
		c0.561,0.238,1.162,0.357,1.807,0.357h3.004c1.863,0,3.637,0.349,5.314,1.045C177.774,42.254,179.292,43.283,180.649,44.643z"/>
</g>
<g>
	<path fill="#339999" d="M217.589,28.449c2.991,2.958,4.488,6.512,4.488,10.66c0,2.006-0.382,3.919-1.146,5.738
		c-0.764,1.819-1.875,3.46-3.333,4.922c-1.426,1.462-3.046,2.567-4.86,3.315c-1.815,0.749-3.725,1.122-5.727,1.122h-7.531
		c-0.51,0-0.917-0.17-1.222-0.513v14.845h-7.396V25.694c0-0.441,0.17-0.833,0.51-1.173c0.34-0.339,0.73-0.51,1.174-0.51h14.435
		c2.006,0,3.918,0.375,5.737,1.122C214.536,25.882,216.16,26.987,217.589,28.449z M198.259,48.813
		c0.339-0.582,0.796-1.061,1.372-1.438c0.576-0.376,1.237-0.565,1.983-0.565h5.39c1.051,0,2.042-0.203,2.975-0.609
		c0.932-0.407,1.746-0.957,2.44-1.652c0.695-0.695,1.246-1.507,1.652-2.44s0.61-1.94,0.61-3.025c0-1.05-0.204-2.05-0.61-2.999
		s-0.957-1.771-1.652-2.466c-0.694-0.695-1.509-1.237-2.44-1.626c-0.933-0.39-1.924-0.585-2.975-0.585h-8.745V48.813z"/>
</g>
<g>
	<path fill="#339999" d="M250.625,44.643c1.356,1.36,2.383,2.881,3.079,4.564c0.694,1.683,1.043,3.46,1.043,5.33
		c0,1.87-0.35,3.646-1.046,5.33c-0.697,1.683-1.726,3.205-3.086,4.565c-1.36,1.359-2.881,2.389-4.564,3.086
		c-1.683,0.696-3.46,1.045-5.33,1.045h-10.71c-0.442,0-0.834-0.171-1.173-0.513c-0.341-0.344-0.511-0.737-0.511-1.183V65.07
		c0-1.096,0.383-2.02,1.147-2.773c0.766-0.754,1.658-1.129,2.678-1.129l8.568,0.051c0.918,0,1.776-0.179,2.576-0.534
		c0.799-0.356,1.505-0.839,2.116-1.448c0.612-0.61,1.088-1.313,1.429-2.109c0.339-0.796,0.51-1.668,0.51-2.617
		c0-0.914-0.171-1.761-0.51-2.54c-0.341-0.779-0.816-1.474-1.429-2.083c-0.611-0.61-1.317-1.093-2.116-1.448
		c-0.8-0.355-1.658-0.534-2.576-0.534h-3.009c-1.632,0-3.162-0.306-4.59-0.92c-1.429-0.613-2.721-1.482-3.877-2.606
		c-1.122-1.125-1.98-2.411-2.575-3.859c-0.596-1.448-0.893-2.99-0.893-4.625c0-1.567,0.297-3.075,0.893-4.523
		c0.595-1.448,1.453-2.734,2.575-3.859c2.347-2.351,5.168-3.526,8.467-3.526H249.8c0.476,0,0.884,0.171,1.224,0.514
		s0.51,0.736,0.51,1.181v1.849c0,1.062-0.374,1.968-1.122,2.722c-0.748,0.754-1.666,1.13-2.754,1.13h-9.91
		c-0.644,0-1.246,0.12-1.805,0.357c-0.56,0.238-1.034,0.57-1.423,0.995c-0.39,0.425-0.712,0.91-0.966,1.454
		c-0.254,0.544-0.381,1.122-0.381,1.734c0,0.646,0.127,1.25,0.382,1.811c0.254,0.561,0.576,1.046,0.967,1.454
		c0.39,0.408,0.864,0.732,1.424,0.969c0.56,0.238,1.162,0.357,1.807,0.357h3.003c1.864,0,3.637,0.349,5.315,1.045
		C247.75,42.254,249.268,43.283,250.625,44.643z"/>
</g>
<g>
	<path fill="#339999" d="M183.19,86.109h-2.105l-0.913-0.854c-0.737,0.68-1.601,1.02-2.589,1.02c-0.928,0-1.665-0.225-2.213-0.674
		s-0.822-1.047-0.822-1.791c0-0.949,0.506-1.693,1.516-2.234c-0.423-0.309-0.714-0.6-0.873-0.875
		c-0.16-0.276-0.239-0.588-0.239-0.936c0-0.559,0.239-1.018,0.717-1.377c0.479-0.36,1.142-0.54,1.99-0.54
		c0.784,0,1.403,0.157,1.855,0.473c0.453,0.315,0.68,0.733,0.68,1.257c0,0.975-0.595,1.658-1.783,2.052l1.772,1.622
		c0.035-0.104,0.054-0.748,0.054-1.934h1.724v0.58c0,0.873-0.248,1.629-0.746,2.267l1.977,1.8V86.109z M179.366,84.482l-2.477-2.272
		c-0.354,0.294-0.531,0.728-0.531,1.3c0,0.459,0.15,0.828,0.451,1.109s0.684,0.422,1.149,0.422
		C178.532,85.041,179.001,84.854,179.366,84.482z M178.464,79.771c0-0.612-0.297-0.918-0.892-0.918
		c-0.243,0-0.449,0.078-0.618,0.236c-0.168,0.157-0.252,0.372-0.252,0.645c0,0.408,0.333,0.845,0.999,1.311
		C178.21,80.758,178.464,80.334,178.464,79.771z"/>
</g>
<path fill="none" d="M98.91,49.481c0,27.294-22.15,49.411-49.48,49.411C22.18,98.893,0,76.775,0,49.481C0,22.164,22.18,0,49.429,0
	C76.759,0,98.91,22.164,98.91,49.481z"/>
<g>
	<defs>
		<ellipse id="SVGID_1_" cx="49.455" cy="49.446" rx="49.455" ry="49.446"/>
	</defs>
	<clipPath id="SVGID_4_">
		<use xlink:href="#SVGID_1_"  overflow="visible"/>
	</clipPath>
	<path clip-path="url(#SVGID_4_)" fill="#0FA59D" d="M98.707,54.668c-0.031-0.122-0.107-0.229-0.196-0.316
		c-0.126-0.129-0.29-0.225-0.451-0.303l-0.449-0.3l-0.45-0.3l-0.449-0.3l-0.451-0.3c0.064,0.063-0.337-0.246-0.449-0.3l0.055,0.059
		v0.003c-0.138-0.162-0.32-0.262-0.506-0.361l-0.449-0.3l-0.449-0.3l-0.45-0.3l-0.45-0.3l-0.449-0.3l-0.451-0.3l-0.449-0.3
		l-0.45-0.3l-0.449-0.299c0.099,0.094-0.361-0.258-0.45-0.3c0.097,0.094-0.362-0.257-0.449-0.3c0.095,0.094-0.363-0.259-0.452-0.301
		l-0.448-0.3l-0.451-0.3l-0.449-0.3l-0.45-0.3l-0.45-0.3l-0.45-0.3l-0.45-0.3l-0.449-0.3l-0.451-0.3l-0.449-0.3l-0.449-0.3
		c-0.527-0.515-1.843-0.731-2.748-0.731h-4.926h-0.983l0.983-0.984l4.748-4.748l5.789-5.789c1.152-1.154,1.719-2.463,1.268-2.914
		l-5.182-5.181c-0.075-0.076-0.186-0.121-0.289-0.139l5.021,5.02l-5.182-5.181c-0.077-0.078-0.186-0.119-0.289-0.139l-0.004-0.004
		l-0.157-0.157c-0.077-0.077-0.185-0.119-0.29-0.139l-0.003-0.003l-0.157-0.158c-0.077-0.077-0.185-0.118-0.289-0.139l-0.004-0.003
		l-0.157-0.158c-0.077-0.077-0.185-0.119-0.288-0.139l-0.005-0.003l-0.157-0.157c-0.076-0.077-0.185-0.119-0.289-0.139l-0.003-0.003
		l-0.157-0.157c-0.078-0.077-0.185-0.119-0.289-0.139l-0.004-0.003l-0.158-0.157c-0.076-0.077-0.184-0.119-0.289-0.139l-0.003-0.003
		l-0.157-0.157c-0.075-0.076-0.186-0.121-0.289-0.139l5.021,5.02l-5.182-5.181c-0.078-0.077-0.186-0.119-0.289-0.14l-0.004-0.003
		l-0.158-0.157c-0.076-0.077-0.184-0.118-0.289-0.139l-0.004-0.003l-0.156-0.158c-0.078-0.077-0.185-0.119-0.289-0.139l-0.004-0.003
		l-0.158-0.158c-0.076-0.077-0.184-0.119-0.287-0.139l-0.005-0.003l-0.157-0.158c-0.076-0.077-0.185-0.119-0.289-0.139l-0.004-0.004
		l-0.156-0.157c-0.078-0.077-0.186-0.119-0.289-0.139l-0.004-0.004l-0.031-0.03l-0.127-0.126c-0.076-0.077-0.184-0.119-0.289-0.14
		l-0.003-0.003l-0.157-0.157c-0.076-0.077-0.185-0.119-0.289-0.14l-0.004-0.003l-0.156-0.157c-0.078-0.077-0.186-0.118-0.289-0.139
		l-0.004-0.003l-0.158-0.157c-0.076-0.077-0.184-0.119-0.289-0.139l-0.004-0.003l-0.156-0.157c-0.077-0.076-0.185-0.12-0.289-0.139
		l-0.004-0.003l-0.158-0.157c-0.076-0.077-0.184-0.119-0.288-0.139l-0.003-0.003l-0.158-0.157c-0.077-0.078-0.185-0.119-0.289-0.139
		l-0.004-0.003l-0.157-0.158c-0.077-0.077-0.184-0.119-0.289-0.139l-0.003-0.003l-0.158-0.158c-0.076-0.077-0.184-0.118-0.289-0.139
		l-0.004-0.003l-0.156-0.158c-0.078-0.077-0.185-0.118-0.289-0.139l-0.004-0.003l-0.157-0.157c-0.077-0.077-0.185-0.119-0.289-0.139
		l-0.004-0.003l-0.157-0.157c-0.077-0.077-0.184-0.119-0.289-0.139l-0.004-0.003l-0.157-0.157c-0.077-0.077-0.185-0.119-0.289-0.139
		l-0.003-0.003l-0.158-0.157c-0.076-0.077-0.184-0.119-0.288-0.139l-0.004-0.003l-0.157-0.157c-0.077-0.077-0.185-0.119-0.289-0.14
		l-0.004-0.003l-0.157-0.157c-0.75-0.75-2.45,0.808-2.911,1.271l-2.001,2L62.3,22.526l-4.689,4.687l0.201-0.2l0.231-0.231
		l-0.024-0.007h-0.207v-0.062c0-0.094-0.117-0.238-0.242-0.238h-0.207v-0.062c0-0.094-0.117-0.238-0.243-0.238h-0.208v-0.063
		c0-0.094-0.116-0.237-0.242-0.237h-0.207v-0.063c0-0.094-0.117-0.237-0.242-0.237h-0.207v-0.063c0-0.094-0.117-0.237-0.244-0.237
		h-0.207v-0.063c0-0.094-0.116-0.237-0.242-0.237h-0.207v-0.063c0-0.094-0.117-0.237-0.243-0.237h-0.208v-0.063
		c0-0.094-0.116-0.238-0.242-0.238h-0.207v-0.062c0-0.094-0.117-0.238-0.242-0.238h-0.207v-0.062c0-0.094-0.118-0.238-0.244-0.238
		h-0.207v-0.062c0-0.094-0.116-0.238-0.242-0.238h-0.207v-0.063c0-0.094-0.117-0.237-0.243-0.237h-0.207v-0.063
		c0-0.093-0.116-0.237-0.243-0.237h-0.207v-0.063c0-0.094-0.117-0.237-0.242-0.237h-0.207v-0.063c0-0.094-0.117-0.237-0.243-0.237
		h-0.208v-0.063c0-0.094-0.116-0.237-0.242-0.237h-0.207v-0.063c0-0.094-0.117-0.237-0.242-0.237h-0.207v-0.063
		c0-0.094-0.118-0.237-0.244-0.237h-0.207v-0.063c0-0.094-0.117-0.238-0.242-0.238h-0.207v-0.062c0-0.094-0.117-0.238-0.243-0.238
		h-0.207v-0.062c0-0.094-0.117-0.238-0.243-0.238h-0.207v-0.062c0-0.094-0.117-0.238-0.242-0.238h-0.207v-0.063
		c0-0.094-0.117-0.237-0.244-0.237h-7.387h-2.75c-0.117,0-0.234,0.143-0.234,0.237v17.689v11.435v0.001
		c-0.113-0.112-0.296-0.222-0.437-0.288l-0.45-0.3l-0.45-0.299c0.096,0.095-0.361-0.258-0.45-0.3l-0.45-0.3l-0.45-0.3l-0.45-0.3
		l-0.449-0.3c0.097,0.095-0.362-0.258-0.451-0.3l-0.45-0.3c0.091,0.089-0.368-0.257-0.45-0.3c0.092,0.091-0.366-0.257-0.45-0.3
		c0.092,0.091-0.365-0.257-0.45-0.3c-0.525-0.513-1.843-0.731-2.75-0.731h-6.958H9.977c-1.633,0-2.966,0.521-2.966,1.16v7.327
		c0,0.358,0.392,0.602,0.673,0.736l-0.005-0.002c0.118,0.118,0.326,0.226,0.449,0.299l0.006,0.006
		c0.121,0.116,0.296,0.226,0.447,0.295L8.578,54.44c0.127,0.116,0.32,0.223,0.45,0.301l0.005,0.005
		c0.12,0.114,0.323,0.222,0.445,0.295l0.005,0.005c0.122,0.116,0.296,0.227,0.447,0.295L9.927,55.34
		c0.127,0.116,0.321,0.223,0.45,0.3l0.005,0.006c0.125,0.119,0.294,0.224,0.449,0.296l-0.004-0.002
		c0.134,0.125,0.29,0.223,0.455,0.302l-0.005-0.002c0.133,0.126,0.291,0.222,0.455,0.302l-0.005-0.002l0.005,0.006
		c0.119,0.115,0.323,0.221,0.444,0.294l0.006,0.006c0.126,0.121,0.293,0.224,0.45,0.297l-0.005-0.002
		c0.118,0.118,0.326,0.226,0.45,0.299l0.005,0.005c0.126,0.121,0.294,0.224,0.451,0.297l-0.006-0.002
		c0.119,0.119,0.326,0.226,0.45,0.3l0.006,0.005c0.12,0.114,0.323,0.222,0.444,0.294l0.005,0.006
		c0.121,0.115,0.296,0.226,0.447,0.295l-0.003-0.001c0.128,0.116,0.321,0.223,0.451,0.301l0.005,0.005
		c0.126,0.121,0.294,0.224,0.451,0.297l-0.006-0.002c0.119,0.119,0.326,0.225,0.449,0.299l0.006,0.006
		c0.12,0.114,0.323,0.221,0.444,0.294l0.005,0.006c0.12,0.114,0.323,0.221,0.445,0.294l0.005,0.006
		c0.126,0.121,0.294,0.223,0.451,0.297l-0.006-0.002c0.119,0.119,0.326,0.226,0.45,0.3l0.005,0.005
		c0.127,0.121,0.293,0.223,0.451,0.297l-0.006-0.002c0.119,0.118,0.326,0.227,0.45,0.301l0.006,0.004
		c0.119,0.115,0.322,0.223,0.444,0.295l0.005,0.006c0.127,0.121,0.292,0.219,0.448,0.295l-0.003-0.002
		c0.137,0.125,0.288,0.223,0.454,0.303l-0.003-0.002l0.005,0.006c0.126,0.121,0.293,0.223,0.45,0.297l-0.005-0.002l0.006,0.006
		c0.671,0.637,1.876,0.727,2.743,0.727h13.823v11.58v3.934c0,0.111,0.117,0.232,0.234,0.232h0.215v0.068
		c0,0.111,0.117,0.23,0.234,0.23h0.217v0.068c0,0.111,0.115,0.23,0.233,0.23h0.216v0.07c0,0.111,0.117,0.23,0.234,0.23h0.215v0.068
		c0,0.113,0.117,0.232,0.234,0.232h0.216v0.068c0,0.111,0.118,0.23,0.234,0.23h0.216v0.068c0,0.113,0.117,0.232,0.234,0.232h0.051
		h0.165v0.068c0,0.111,0.117,0.232,0.233,0.232h0.217v0.066c0,0.113,0.117,0.232,0.233,0.232h0.216v0.068
		c0,0.111,0.117,0.23,0.234,0.23h0.217v0.07c0,0.111,0.116,0.23,0.233,0.23h0.216v0.068c0,0.113,0.117,0.232,0.234,0.232h0.215
		v0.068c0,0.111,0.117,0.23,0.234,0.23h0.217v0.07c0,0.109,0.116,0.229,0.233,0.229h0.216v0.07c0,0.113,0.117,0.23,0.234,0.23h0.217
		v0.068c0,0.113,0.116,0.232,0.232,0.232h0.217v0.068c0,0.111,0.117,0.23,0.234,0.23h0.216v0.07c0,0.111,0.116,0.23,0.233,0.23
		h0.217v0.068c0,0.113,0.116,0.232,0.234,0.232h0.215v0.068c0,0.111,0.117,0.23,0.234,0.23h0.216v0.07
		c0,0.109,0.116,0.229,0.233,0.229h0.217v0.07c0,0.111,0.116,0.23,0.234,0.23h0.215v0.068c0,0.113,0.117,0.232,0.234,0.232h0.215
		v0.068c0,0.111,0.118,0.23,0.235,0.23h0.216v0.07c0,0.111,0.117,0.23,0.234,0.23h0.215v0.068c0,0.113,0.117,0.23,0.234,0.23h0.217
		v0.068c0,0.113,0.116,0.232,0.234,0.232h0.215v0.068c0,0.111,0.117,0.23,0.234,0.23h0.215v0.07c0,0.111,0.118,0.23,0.234,0.23
		h0.217v0.068c0,0.113,0.117,0.232,0.234,0.232h0.215v0.068c0,0.111,0.117,0.23,0.234,0.23h7.779h2.359
		c0.125,0,0.242-0.119,0.242-0.23V75.117l6.135,6.133c0.384,0.385,0.81,0.725,1.273,1.006l-0.012-0.006
		c0.15,0.104,0.301,0.209,0.458,0.303l-0.01-0.004c0.149,0.107,0.306,0.209,0.464,0.307l-0.012-0.006
		c0.145,0.111,0.301,0.211,0.459,0.305l-0.011-0.004c0.147,0.111,0.305,0.209,0.463,0.305l-0.012-0.006
		c0.146,0.113,0.304,0.211,0.462,0.307l-0.012-0.006c0.129,0.098,0.385,0.26,0.45,0.301c0.146,0.111,0.304,0.209,0.462,0.305
		l-0.012-0.006c0.149,0.104,0.301,0.209,0.457,0.303l-0.01-0.004c0.125,0.09,0.389,0.264,0.452,0.301
		c0.146,0.113,0.304,0.211,0.462,0.307l-0.012-0.006c0.146,0.111,0.304,0.209,0.461,0.305l-0.012-0.006
		c0.15,0.104,0.301,0.209,0.458,0.303l-0.009-0.004c0.15,0.109,0.306,0.209,0.463,0.307l-0.012-0.004
		c0.146,0.109,0.302,0.209,0.46,0.303l-0.011-0.004c0.146,0.113,0.305,0.211,0.463,0.307l-0.012-0.008
		c0.146,0.113,0.304,0.211,0.462,0.307l-0.013-0.006c0.109,0.084,0.418,0.281,0.451,0.301c0.099,0.072,0.425,0.285,0.449,0.299
		c0.15,0.105,0.301,0.211,0.457,0.303l-0.009-0.004c0.124,0.09,0.388,0.264,0.451,0.301c0.147,0.113,0.305,0.211,0.462,0.307
		l-0.012-0.006c0.146,0.113,0.305,0.211,0.463,0.307l-0.013-0.008c0.15,0.104,0.301,0.209,0.458,0.305l-0.01-0.006
		c0.15,0.109,0.306,0.211,0.464,0.309l-0.013-0.006c0.146,0.109,0.303,0.211,0.461,0.303l-0.012-0.004
		c0.146,0.113,0.305,0.211,0.463,0.307l-0.012-0.008c0.146,0.113,0.304,0.213,0.462,0.309l-0.012-0.008
		c0.128,0.1,0.385,0.262,0.45,0.301c0.146,0.113,0.304,0.211,0.462,0.307l-0.013-0.008c0.428,0.32,1.574,1.104,2.104,0.566
		l5.182-5.178c0.453-0.453-0.117-1.76-1.271-2.914l-8.573-8.57l-1.961-1.961l-2.715-2.715c-0.377-0.377-0.797-0.721-1.256-0.994
		c0.016,0.01-0.322-0.223-0.449-0.301c0.029,0.021-0.338-0.23-0.449-0.299c0.031,0.021-0.352-0.246-0.451-0.301
		c0.02,0.014-0.343-0.232-0.451-0.301c0.248,0.184-1.84-1.141-0.432-0.289l-0.018-0.01c0.02,0.012-0.33-0.234-0.449-0.301
		c0.019,0.014-0.342-0.232-0.451-0.299c0.248,0.182-1.852-1.15-0.432-0.289l-0.018-0.012c0.018,0.012-0.329-0.232-0.449-0.301
		c0.018,0.016-0.343-0.232-0.451-0.299c0.247,0.182-1.852-1.15-0.432-0.289l-0.018-0.012c0.016,0.012-0.322-0.221-0.448-0.299
		c0.026,0.021-0.339-0.23-0.45-0.299c0.029,0.021-0.352-0.246-0.451-0.301c0.02,0.014-0.344-0.234-0.451-0.301
		c0.248,0.184-1.841-1.141-0.432-0.289l-0.018-0.012c0.019,0.014-0.33-0.232-0.449-0.299c0.018,0.014-0.344-0.232-0.451-0.301
		c0.248,0.184-1.853-1.148-0.432-0.289l-0.018-0.01c0.018,0.012-0.33-0.232-0.451-0.301c0.02,0.016-0.342-0.232-0.449-0.299
		c0.248,0.184-1.844-1.145-0.433-0.289l-0.017-0.012c0.016,0.012-0.322-0.221-0.449-0.299c0.027,0.021-0.339-0.23-0.45-0.299
		c0.03,0.021-0.351-0.246-0.451-0.303c0.021,0.016-0.343-0.232-0.45-0.299l-0.256-0.18v-4.876v-2.338l0.27,0.152l-0.003-0.001
		c0.113,0.113,0.324,0.237,0.45,0.3c0.117,0.118,0.303,0.233,0.452,0.301l-0.002,0c0.116,0.117,0.304,0.233,0.452,0.3l-0.003,0
		c0.118,0.117,0.304,0.233,0.453,0.3l-0.003,0c0.117,0.117,0.303,0.233,0.453,0.301l-0.003-0.001c0.136,0.136,0.286,0.205,0.45,0.3
		c0.09,0.112,0.33,0.243,0.452,0.301l-0.003-0.001l0.008,0.008c0.131,0.121,0.285,0.216,0.445,0.293l-0.003-0.001
		c0.118,0.118,0.304,0.233,0.452,0.301l-0.002-0.001c0.117,0.118,0.303,0.234,0.452,0.301l-0.002-0.001
		c0.116,0.117,0.304,0.233,0.452,0.301l-0.003-0.001c0.113,0.113,0.324,0.237,0.45,0.3c0.118,0.117,0.303,0.232,0.453,0.3l-0.004,0
		c0.118,0.117,0.305,0.233,0.453,0.3l-0.002,0c0.117,0.118,0.303,0.233,0.452,0.301l-0.003-0.001
		c0.118,0.118,0.305,0.233,0.453,0.301l-0.003-0.001c0.117,0.117,0.304,0.233,0.452,0.301l-0.002-0.001
		c0.117,0.117,0.304,0.233,0.452,0.301l-0.002-0.001c0.117,0.117,0.304,0.233,0.452,0.301l-0.003-0.001
		c0.118,0.117,0.304,0.233,0.453,0.301l-0.003-0.001c0.117,0.118,0.304,0.234,0.453,0.301l-0.003-0.001
		c0.117,0.118,0.304,0.234,0.452,0.301l-0.002-0.001c0.113,0.113,0.324,0.237,0.449,0.3c0.119,0.117,0.303,0.232,0.453,0.301h-0.003
		c0.118,0.117,0.304,0.232,0.453,0.301l-0.003-0.002c0.117,0.117,0.304,0.232,0.453,0.301h-0.004
		c0.118,0.117,0.305,0.232,0.453,0.301l-0.002-0.002c0.117,0.117,0.303,0.232,0.452,0.301h-0.003
		c0.648,0.648,1.895,0.732,2.748,0.732h0.313h18.426c0.656,0,2.957-0.109,2.957-1.166v-5.778V54.78L98.707,54.668"/>
</g>
<path fill="#FFFFFF" d="M48.363,78.785c0,0.111-0.119,0.232-0.243,0.232H37.984c-0.117,0-0.234-0.121-0.234-0.232V20.114
	c0-0.094,0.117-0.237,0.234-0.237H48.12c0.124,0,0.243,0.143,0.243,0.237V78.785z"/>
<path fill="#FFFFFF" d="M17.111,53.113c0,0.638-0.52,1.163-1.156,1.163H8.627c-0.638,0-1.16-0.524-1.16-1.163v-7.327
	c0-0.639,0.521-1.16,1.16-1.16h7.328c0.637,0,1.156,0.521,1.156,1.16V53.113z"/>
<path fill="#FFFFFF" d="M32.124,53.113c0,0.638-0.521,1.163-1.162,1.163h-7.328c-0.637,0-1.156-0.524-1.156-1.163v-7.327
	c0-0.639,0.52-1.16,1.156-1.16h7.328c0.64,0,1.162,0.521,1.162,1.16V53.113z"/>
<path fill="#FFFFFF" d="M70.65,53.113c0,0.638-0.516,1.163-1.16,1.163h-7.315c-0.644,0-1.165-0.524-1.165-1.163v-7.327
	c0-0.639,0.521-1.16,1.165-1.16h7.315c0.645,0,1.16,0.521,1.16,1.16V53.113z"/>
<path fill="#FFFFFF" d="M85.667,53.113c0,0.638-0.521,1.163-1.166,1.163h-7.326c-0.646,0-1.155-0.524-1.155-1.163v-7.327
	c0-0.639,0.509-1.16,1.155-1.16h7.326c0.645,0,1.166,0.521,1.166,1.16V53.113z"/>
<path fill="#FFFFFF" d="M65.666,31.98c0.474,0.471,0.474,1.204,0,1.658l-5.178,5.171c-0.452,0.451-1.184,0.451-1.629,0l-5.201-5.171
	c-0.451-0.454-0.451-1.187,0-1.658l5.201-5.175c0.445-0.451,1.177-0.451,1.629,0L65.666,31.98z"/>
<path fill="#FFFFFF" d="M76.302,21.367c0.45,0.471,0.45,1.207,0,1.652l-5.196,5.178c-0.456,0.451-1.188,0.451-1.64,0l-5.195-5.178
	c-0.457-0.445-0.457-1.181,0-1.652l5.195-5.178c0.451-0.451,1.184-0.451,1.64,0L76.302,21.367z"/>
<path fill="#FFFFFF" d="M60.488,72.096c-0.452,0.439-1.184,0.439-1.629,0l-5.201-5.184c-0.451-0.445-0.451-1.174,0-1.66l5.201-5.168
	c0.445-0.445,1.177-0.445,1.629,0l5.178,5.168c0.474,0.486,0.474,1.215,0,1.66L60.488,72.096z"/>
<path fill="#FFFFFF" d="M71.106,82.703c-0.456,0.469-1.188,0.469-1.64,0l-5.195-5.174c-0.457-0.449-0.457-1.178,0-1.662l5.195-5.168
	c0.451-0.453,1.184-0.453,1.64,0l5.196,5.168c0.45,0.484,0.45,1.213,0,1.662L71.106,82.703z"/>
</svg>
