<?xml version="1.0" encoding="utf-8"?>
<!-- Generator: Adobe Illustrator 14.0.0, SVG Export Plug-In  -->
<!DOCTYPE svg PUBLIC "-//W3C//DTD SVG 1.1//EN" "http://www.w3.org/Graphics/SVG/1.1/DTD/svg11.dtd" [
	<!ENTITY ns_flows "http://ns.adobe.com/Flows/1.0/">
]>
<svg version="1.1"
	 xmlns="http://www.w3.org/2000/svg" xmlns:xlink="http://www.w3.org/1999/xlink" xmlns:a="http://ns.adobe.com/AdobeSVGViewerExtensions/3.0/"
	 x="0px" y="0px" width="300px" height="300px" viewBox="-5.076 -6.419 300 300" enable-background="new -5.076 -6.419 300 300"
	 xml:space="preserve">
<defs>
	
		<pattern  x="-5.076" y="293.581" width="157.955" height="157.955" patternUnits="userSpaceOnUse" id="新規パターンスウォッチ_4" viewBox="0 -157.955 157.955 157.955" overflow="visible">
		<g>
			<polygon fill="none" points="0,0 157.955,0 157.955,-157.955 0,-157.955 			"/>
			<polygon fill="#22C3BD" points="157.955,0 0,0 0,-157.955 157.955,-157.955 			"/>
		</g>
	</pattern>
</defs>
<ellipse fill="url(#新規パターンスウォッチ_4)" cx="144.924" cy="145.049" rx="144.924" ry="145.031"/>
<path fill="none" d="M289.848,145.001c0,79.984-64.914,144.794-145.001,144.794C64.996,289.795,0,224.986,0,145.001
	C0,64.949,64.996,0,144.847,0C224.934,0,289.848,64.949,289.848,145.001z"/>
<g>
	<defs>
		<ellipse id="SVGID_1_" cx="144.924" cy="144.898" rx="144.924" ry="144.897"/>
	</defs>
	<clipPath id="SVGID_2_">
		<use xlink:href="#SVGID_1_"  overflow="visible"/>
	</clipPath>
	<path clip-path="url(#SVGID_2_)" fill="#0FA59D" d="M289.25,160.202c-0.092-0.356-0.313-0.674-0.576-0.927
		c-0.367-0.378-0.849-0.659-1.319-0.888c0.256,0.25-1.092-0.757-1.318-0.879c0.256,0.25-1.092-0.757-1.318-0.879
		c0.258,0.252-1.096-0.759-1.319-0.879c0.257,0.25-1.092-0.757-1.318-0.879c0.188,0.183-0.989-0.72-1.318-0.879
		c0.059,0.057,0.112,0.114,0.163,0.172v0.009c-0.406-0.475-0.94-0.769-1.481-1.06c0.256,0.25-1.093-0.757-1.319-0.879
		c0.257,0.25-1.092-0.757-1.317-0.879c0.257,0.252-1.096-0.759-1.318-0.879c0.257,0.252-1.095-0.759-1.318-0.879
		c0.257,0.252-1.096-0.759-1.319-0.879c0.255,0.25-1.093-0.757-1.318-0.879c0.255,0.25-1.092-0.757-1.318-0.879
		c0.255,0.25-1.092-0.757-1.318-0.879c0.243,0.244-1.062-0.755-1.317-0.877c0.287,0.275-1.059-0.756-1.318-0.879
		c0.283,0.278-1.063-0.751-1.318-0.879c0.28,0.276-1.062-0.758-1.321-0.88c0.263,0.257-1.075-0.757-1.318-0.879
		c0.262,0.257-1.074-0.757-1.318-0.879c0.262,0.257-1.075-0.757-1.318-0.879c0.262,0.257-1.075-0.757-1.319-0.879
		c0.263,0.257-1.074-0.757-1.318-0.879c0.263,0.257-1.074-0.757-1.318-0.879c0.263,0.257-1.074-0.757-1.318-0.879
		c0.263,0.257-1.074-0.757-1.319-0.879c0.264,0.257-1.075-0.757-1.318-0.879c0.263,0.257-1.075-0.757-1.318-0.879
		c0.263,0.257-1.075-0.757-1.318-0.879c-1.543-1.509-5.398-2.144-8.052-2.144H226.63h-2.882l2.882-2.881l13.914-13.913
		l16.962-16.963c3.381-3.382,5.039-7.218,3.718-8.54L246.04,73.277c-0.221-0.221-0.545-0.353-0.847-0.408l14.713,14.71
		l-15.185-15.182c-0.226-0.226-0.541-0.348-0.847-0.408l-0.011-0.01l-0.461-0.461c-0.227-0.226-0.541-0.348-0.848-0.408l-0.011-0.01
		l-0.461-0.461c-0.226-0.226-0.54-0.348-0.847-0.408l-0.011-0.01l-0.461-0.461c-0.226-0.226-0.541-0.348-0.847-0.408l-0.011-0.01
		l-0.461-0.461c-0.226-0.226-0.541-0.348-0.847-0.408l-0.011-0.01l-0.462-0.461c-0.226-0.226-0.54-0.348-0.847-0.408l-0.011-0.01
		l-0.461-0.461c-0.226-0.226-0.54-0.348-0.847-0.408l-0.011-0.01l-0.461-0.461c-0.221-0.221-0.545-0.353-0.847-0.408l14.713,14.71
		l-15.185-15.182c-0.226-0.226-0.541-0.348-0.847-0.408l-0.011-0.01l-0.462-0.461c-0.226-0.226-0.54-0.348-0.847-0.408l-0.011-0.01
		l-0.461-0.461c-0.226-0.226-0.54-0.348-0.847-0.408l-0.011-0.01l-0.461-0.461c-0.226-0.226-0.541-0.348-0.847-0.408l-0.011-0.01
		l-0.461-0.461c-0.226-0.226-0.541-0.348-0.847-0.408l-0.011-0.01l-0.462-0.461c-0.226-0.226-0.54-0.348-0.847-0.408l-0.011-0.01
		l-0.091-0.091l-0.37-0.37c-0.226-0.226-0.54-0.348-0.847-0.408l-0.011-0.01l-0.461-0.461c-0.226-0.226-0.54-0.348-0.847-0.408
		l-0.011-0.01l-0.461-0.461c-0.226-0.226-0.54-0.348-0.847-0.408l-0.011-0.01l-0.462-0.461c-0.226-0.226-0.539-0.348-0.847-0.408
		l-0.011-0.01l-0.461-0.461c-0.225-0.223-0.54-0.35-0.847-0.408l-0.011-0.01l-0.461-0.461c-0.226-0.226-0.54-0.348-0.847-0.408
		l-0.011-0.01l-0.461-0.461c-0.227-0.226-0.54-0.348-0.847-0.408l-0.012-0.01l-0.461-0.461c-0.226-0.226-0.539-0.348-0.847-0.408
		l-0.011-0.01l-0.461-0.461c-0.226-0.226-0.54-0.348-0.847-0.408l-0.011-0.01l-0.461-0.461c-0.226-0.226-0.54-0.348-0.847-0.408
		l-0.011-0.01l-0.461-0.461c-0.227-0.226-0.54-0.348-0.848-0.408l-0.011-0.01l-0.461-0.461c-0.226-0.226-0.539-0.348-0.847-0.408
		l-0.011-0.01l-0.461-0.461c-0.226-0.226-0.54-0.348-0.847-0.408l-0.011-0.01l-0.461-0.461c-0.226-0.226-0.54-0.348-0.847-0.408
		l-0.011-0.01l-0.462-0.461c-0.226-0.226-0.539-0.348-0.847-0.408l-0.011-0.01l-0.461-0.461c-2.197-2.197-7.18,2.369-8.531,3.725
		l-5.862,5.86l-9.521,9.518l-13.74,13.734l0.588-0.588l0.679-0.679c-0.024-0.004-0.047-0.019-0.071-0.019h-0.607v-0.183
		c0-0.275-0.342-0.696-0.711-0.696h-0.607v-0.183c0-0.275-0.343-0.696-0.711-0.696h-0.607V76.52c0-0.275-0.343-0.696-0.712-0.696
		h-0.607v-0.183c0-0.275-0.342-0.696-0.711-0.696h-0.607v-0.183c0-0.275-0.342-0.696-0.711-0.696h-0.607v-0.183
		c0-0.275-0.343-0.696-0.711-0.696h-0.607v-0.183c0-0.275-0.343-0.696-0.712-0.696h-0.607v-0.183c0-0.275-0.342-0.696-0.711-0.696
		h-0.607v-0.183c0-0.275-0.342-0.696-0.711-0.696h-0.607v-0.183c0-0.275-0.343-0.696-0.711-0.696h-0.607v-0.183
		c0-0.275-0.343-0.696-0.712-0.696h-0.607V68.61c0-0.275-0.342-0.696-0.711-0.696h-0.607v-0.183c0-0.275-0.342-0.696-0.711-0.696
		h-0.607v-0.183c0-0.275-0.343-0.696-0.711-0.696h-0.606v-0.183c0-0.275-0.344-0.696-0.713-0.696h-0.606v-0.183
		c0-0.275-0.343-0.696-0.712-0.696h-0.606v-0.183c0-0.275-0.344-0.696-0.712-0.696h-0.606v-0.183c0-0.275-0.344-0.696-0.713-0.696
		h-0.606v-0.183c0-0.275-0.343-0.696-0.712-0.696h-0.606v-0.183c0-0.275-0.343-0.696-0.712-0.696h-0.607V60.7
		c0-0.275-0.343-0.696-0.712-0.696h-0.606v-0.183c0-0.275-0.343-0.696-0.712-0.696h-0.607v-0.183c0-0.275-0.343-0.696-0.712-0.696
		h-21.649h-8.059c-0.343,0-0.686,0.421-0.686,0.696v51.836v33.508v0.004c-0.329-0.329-0.866-0.649-1.279-0.844
		c0.258,0.253-1.069-0.757-1.319-0.879c0.261,0.255-1.06-0.756-1.317-0.878c0.282,0.277-1.059-0.756-1.32-0.879
		c0.264,0.258-1.073-0.756-1.318-0.879c0.261,0.256-1.064-0.758-1.319-0.879c0.262,0.259-1.07-0.755-1.319-0.879
		c0.263,0.258-1.063-0.754-1.317-0.878c0.283,0.277-1.059-0.756-1.32-0.879c0.262,0.259-1.07-0.755-1.318-0.879
		c0.268,0.262-1.077-0.754-1.318-0.879c0.27,0.267-1.074-0.753-1.318-0.879c0.269,0.266-1.07-0.754-1.319-0.879
		c-1.537-1.504-5.4-2.144-8.056-2.144H63.748H29.235c-4.786,0-8.69,1.528-8.69,3.398v21.472c0,1.049,1.148,1.763,1.971,2.156
		c-0.005-0.003-0.011-0.005-0.017-0.007c0.347,0.347,0.956,0.661,1.318,0.878c0.006,0.006,0.01,0.012,0.016,0.017
		c0.355,0.339,0.868,0.663,1.31,0.864c-0.002-0.001-0.005-0.002-0.007-0.003c0.373,0.34,0.941,0.652,1.319,0.88
		c0.006,0.006,0.01,0.012,0.016,0.017c0.351,0.334,0.946,0.648,1.303,0.862c0.006,0.006,0.01,0.012,0.016,0.017
		c0.355,0.339,0.867,0.663,1.309,0.864c-0.002-0.001-0.005-0.002-0.007-0.003c0.374,0.34,0.94,0.652,1.32,0.88
		c0.006,0.006,0.01,0.012,0.015,0.017c0.365,0.349,0.861,0.657,1.315,0.867c-0.003-0.001-0.008-0.003-0.012-0.005
		c0.394,0.364,0.85,0.655,1.334,0.886c-0.005-0.002-0.011-0.004-0.015-0.007c0.39,0.369,0.853,0.649,1.333,0.886
		c-0.004-0.002-0.01-0.004-0.014-0.007c0.005,0.006,0.009,0.012,0.015,0.017c0.351,0.335,0.946,0.648,1.303,0.862
		c0.006,0.006,0.01,0.012,0.016,0.017c0.371,0.354,0.861,0.654,1.32,0.87c-0.005-0.003-0.011-0.005-0.017-0.007
		c0.347,0.347,0.957,0.661,1.318,0.878c0.006,0.006,0.01,0.012,0.016,0.017c0.371,0.354,0.861,0.654,1.32,0.87
		c-0.006-0.003-0.012-0.005-0.017-0.007c0.348,0.348,0.955,0.66,1.318,0.878c0.006,0.006,0.01,0.012,0.016,0.017
		c0.351,0.334,0.946,0.648,1.303,0.862c0.006,0.006,0.01,0.012,0.016,0.017c0.355,0.339,0.867,0.663,1.309,0.864
		c-0.002-0.001-0.005-0.002-0.007-0.003c0.374,0.34,0.941,0.652,1.319,0.88c0.006,0.006,0.01,0.012,0.016,0.017
		c0.371,0.354,0.861,0.654,1.32,0.87c-0.005-0.003-0.011-0.005-0.017-0.007c0.348,0.348,0.955,0.66,1.318,0.878
		c0.006,0.006,0.01,0.012,0.016,0.017c0.351,0.334,0.946,0.648,1.303,0.862c0.006,0.006,0.01,0.012,0.016,0.017
		c0.35,0.335,0.946,0.648,1.303,0.862c0.006,0.006,0.01,0.012,0.016,0.017c0.371,0.354,0.861,0.654,1.32,0.87
		c-0.005-0.003-0.011-0.005-0.017-0.007c0.347,0.347,0.956,0.661,1.318,0.878c0.006,0.006,0.01,0.012,0.016,0.017
		c0.371,0.354,0.861,0.654,1.32,0.87c-0.005-0.003-0.011-0.005-0.017-0.007c0.348,0.348,0.955,0.66,1.318,0.878
		c0.006,0.006,0.01,0.012,0.016,0.017c0.351,0.334,0.946,0.648,1.303,0.862c0.006,0.006,0.01,0.012,0.016,0.017
		c0.372,0.354,0.854,0.642,1.311,0.865c-0.003-0.001-0.006-0.003-0.009-0.004c0.399,0.363,0.842,0.652,1.33,0.884
		c-0.003-0.001-0.007-0.003-0.01-0.004c0.005,0.006,0.01,0.012,0.016,0.017c0.37,0.353,0.861,0.654,1.32,0.87
		c-0.005-0.003-0.011-0.005-0.016-0.007c0.006,0.006,0.011,0.012,0.018,0.019c1.967,1.862,5.498,2.126,8.037,2.126h40.505v33.938
		v11.526c0,0.328,0.343,0.679,0.686,0.679h0.632v0.2c0,0.328,0.343,0.679,0.687,0.679h0.632v0.2c0,0.328,0.343,0.679,0.686,0.679
		h0.632v0.2c0,0.328,0.343,0.679,0.687,0.679h0.632v0.2c0,0.328,0.343,0.679,0.686,0.679h0.632v0.2c0,0.328,0.343,0.679,0.687,0.679
		h0.632v0.2c0,0.328,0.343,0.679,0.686,0.679h0.147h0.485v0.2c0,0.328,0.343,0.679,0.687,0.679h0.632v0.2
		c0,0.328,0.343,0.679,0.686,0.679h0.633v0.2c0,0.328,0.343,0.679,0.686,0.679h0.633v0.2c0,0.328,0.343,0.679,0.686,0.679h0.633v0.2
		c0,0.328,0.343,0.679,0.686,0.679h0.633v0.2c0,0.328,0.342,0.679,0.686,0.679h0.633v0.2c0,0.328,0.343,0.679,0.686,0.679h0.633v0.2
		c0,0.328,0.342,0.679,0.686,0.679h0.633v0.2c0,0.328,0.342,0.679,0.686,0.679h0.633v0.2c0,0.328,0.342,0.679,0.686,0.679h0.633v0.2
		c0,0.328,0.342,0.679,0.686,0.679h0.632v0.2c0,0.328,0.343,0.679,0.687,0.679h0.632v0.2c0,0.328,0.343,0.679,0.686,0.679h0.632v0.2
		c0,0.328,0.343,0.679,0.687,0.679h0.632v0.2c0,0.328,0.343,0.679,0.686,0.679h0.632v0.2c0,0.328,0.343,0.679,0.687,0.679h0.632v0.2
		c0,0.328,0.343,0.679,0.686,0.679h0.632v0.2c0,0.328,0.343,0.679,0.687,0.679h0.632v0.2c0,0.328,0.343,0.679,0.686,0.679h0.632v0.2
		c0,0.328,0.343,0.679,0.687,0.679h0.632v0.2c0,0.328,0.343,0.679,0.687,0.679h0.632v0.2c0,0.328,0.344,0.679,0.687,0.679h0.632v0.2
		c0,0.328,0.344,0.679,0.688,0.679h0.632v0.2c0,0.328,0.342,0.679,0.687,0.679h22.794h6.914c0.37,0,0.712-0.351,0.712-0.679v-37.115
		l17.978,17.974c1.123,1.127,2.371,2.123,3.731,2.947c-0.012-0.008-0.023-0.013-0.035-0.02c0.44,0.305,0.882,0.612,1.342,0.891
		c-0.009-0.006-0.019-0.01-0.028-0.016c0.44,0.319,0.896,0.617,1.359,0.902c-0.012-0.008-0.023-0.013-0.035-0.02
		c0.427,0.328,0.884,0.62,1.348,0.895c-0.011-0.007-0.021-0.011-0.032-0.018c0.43,0.331,0.893,0.62,1.356,0.9
		c-0.012-0.008-0.023-0.013-0.035-0.02c0.429,0.33,0.891,0.618,1.354,0.898c-0.012-0.008-0.023-0.013-0.035-0.02
		c0.376,0.289,1.128,0.768,1.318,0.879c0.429,0.33,0.891,0.618,1.354,0.898c-0.012-0.008-0.023-0.013-0.035-0.02
		c0.44,0.305,0.882,0.612,1.341,0.891c-0.009-0.006-0.019-0.01-0.027-0.016c0.364,0.265,1.138,0.773,1.324,0.883
		c0.429,0.33,0.891,0.618,1.354,0.898c-0.012-0.008-0.023-0.013-0.035-0.02c0.429,0.33,0.891,0.618,1.354,0.898
		c-0.012-0.008-0.023-0.013-0.035-0.02c0.44,0.305,0.882,0.612,1.341,0.891c-0.009-0.006-0.019-0.01-0.027-0.016
		c0.439,0.319,0.896,0.617,1.359,0.902c-0.012-0.008-0.023-0.013-0.035-0.02c0.427,0.328,0.884,0.62,1.348,0.895
		c-0.011-0.007-0.021-0.011-0.032-0.018c0.43,0.331,0.893,0.62,1.356,0.9c-0.012-0.008-0.023-0.013-0.035-0.02
		c0.429,0.33,0.891,0.618,1.354,0.898c-0.013-0.008-0.024-0.013-0.036-0.02c0.319,0.245,1.224,0.827,1.321,0.881
		c0.289,0.217,1.245,0.839,1.318,0.879c0.439,0.305,0.879,0.614,1.339,0.889c-0.009-0.006-0.019-0.01-0.027-0.016
		c0.363,0.265,1.138,0.773,1.323,0.883c0.429,0.33,0.892,0.618,1.354,0.898c-0.012-0.008-0.023-0.013-0.035-0.02
		c0.429,0.33,0.891,0.618,1.354,0.898c-0.012-0.008-0.023-0.013-0.035-0.02c0.44,0.305,0.882,0.612,1.341,0.891
		c-0.009-0.006-0.019-0.01-0.027-0.016c0.439,0.319,0.896,0.617,1.359,0.902c-0.012-0.008-0.023-0.013-0.036-0.02
		c0.427,0.328,0.885,0.62,1.349,0.895c-0.011-0.007-0.021-0.011-0.032-0.018c0.43,0.331,0.893,0.62,1.356,0.9
		c-0.012-0.008-0.023-0.013-0.035-0.02c0.429,0.33,0.891,0.618,1.354,0.898c-0.012-0.008-0.023-0.013-0.035-0.02
		c0.376,0.289,1.129,0.768,1.318,0.879c0.43,0.33,0.892,0.618,1.354,0.898c-0.012-0.008-0.023-0.013-0.035-0.02
		c1.253,0.939,4.609,3.232,6.163,1.66l15.185-15.173c1.329-1.331-0.345-5.158-3.726-8.539l-25.121-25.116l-5.747-5.746l-7.956-7.955
		c-1.104-1.107-2.337-2.111-3.679-2.917c0.047,0.033-0.942-0.646-1.315-0.877c0.082,0.061-0.99-0.676-1.318-0.879
		c0.09,0.066-1.028-0.718-1.322-0.881c0.059,0.042-1.004-0.683-1.319-0.88c0.725,0.536-5.395-3.342-1.266-0.847
		c-0.019-0.01-0.036-0.021-0.053-0.031c0.056,0.039-0.966-0.684-1.318-0.879c0.056,0.04-1.002-0.682-1.318-0.88
		c0.724,0.535-5.428-3.368-1.267-0.847c-0.018-0.01-0.035-0.021-0.051-0.031c0.052,0.037-0.966-0.683-1.319-0.879
		c0.056,0.04-1.002-0.682-1.319-0.88c0.724,0.535-5.428-3.368-1.267-0.847c-0.018-0.01-0.035-0.021-0.051-0.031
		c0.046,0.033-0.943-0.646-1.314-0.877c0.08,0.061-0.992-0.676-1.319-0.879c0.089,0.066-1.029-0.718-1.322-0.881
		c0.058,0.042-1.005-0.683-1.319-0.88c0.724,0.536-5.396-3.342-1.267-0.847c-0.018-0.01-0.034-0.021-0.052-0.031
		c0.055,0.039-0.967-0.684-1.318-0.879c0.055,0.04-1.003-0.682-1.319-0.88c0.724,0.535-5.428-3.368-1.267-0.847
		c-0.017-0.01-0.034-0.021-0.051-0.031c0.052,0.037-0.966-0.683-1.319-0.879c0.056,0.04-1.002-0.682-1.319-0.88
		c0.727,0.537-5.402-3.353-1.267-0.847c-0.017-0.01-0.034-0.021-0.051-0.031c0.046,0.033-0.943-0.646-1.314-0.877
		c0.08,0.061-0.992-0.676-1.319-0.879c0.089,0.066-1.028-0.718-1.322-0.881c0.058,0.042-1.005-0.683-1.319-0.88
		c0.112,0.084-0.76-0.531-0.749-0.523v-14.29v-6.851c0.021,0.015,0.543,0.328,0.788,0.445c-0.003-0.001-0.006-0.002-0.008-0.003
		c0.332,0.332,0.949,0.694,1.318,0.879c0.345,0.345,0.89,0.683,1.327,0.882c-0.003-0.001-0.006-0.002-0.008-0.003
		c0.343,0.344,0.89,0.684,1.326,0.882c-0.003-0.001-0.006-0.002-0.008-0.003c0.343,0.344,0.89,0.684,1.326,0.882
		c-0.003-0.001-0.006-0.002-0.008-0.003c0.344,0.344,0.89,0.684,1.326,0.882c-0.003-0.001-0.006-0.002-0.008-0.003
		c0.397,0.397,0.839,0.601,1.32,0.879c0.263,0.329,0.968,0.712,1.325,0.883c-0.002-0.002-0.005-0.003-0.008-0.004
		c0.008,0.008,0.014,0.017,0.021,0.024c0.383,0.353,0.837,0.634,1.304,0.857c-0.003-0.001-0.005-0.002-0.007-0.003
		c0.344,0.344,0.889,0.684,1.325,0.882c-0.003-0.001-0.005-0.002-0.007-0.003c0.344,0.344,0.89,0.684,1.326,0.882
		c-0.003-0.001-0.006-0.002-0.007-0.003c0.343,0.344,0.889,0.684,1.325,0.882c-0.003-0.001-0.006-0.002-0.008-0.003
		c0.332,0.332,0.949,0.694,1.318,0.879c0.346,0.345,0.889,0.683,1.326,0.882c-0.003-0.001-0.006-0.002-0.008-0.003
		c0.345,0.344,0.891,0.684,1.327,0.882c-0.003-0.001-0.006-0.002-0.008-0.003c0.344,0.344,0.89,0.684,1.326,0.882
		c-0.003-0.001-0.006-0.002-0.008-0.003c0.345,0.344,0.89,0.684,1.326,0.882c-0.003-0.001-0.006-0.002-0.008-0.003
		c0.345,0.344,0.89,0.684,1.326,0.882c-0.003-0.001-0.006-0.002-0.008-0.003c0.345,0.344,0.891,0.684,1.327,0.882
		c-0.003-0.001-0.006-0.002-0.008-0.003c0.344,0.344,0.89,0.684,1.326,0.882c-0.003-0.001-0.006-0.002-0.008-0.003
		c0.345,0.344,0.89,0.684,1.326,0.882c-0.003-0.001-0.006-0.002-0.008-0.003c0.345,0.344,0.89,0.684,1.327,0.882
		c-0.003-0.001-0.007-0.002-0.009-0.003c0.345,0.344,0.891,0.684,1.327,0.882c-0.003-0.001-0.006-0.002-0.008-0.003
		c0.332,0.332,0.949,0.694,1.318,0.879c0.346,0.345,0.889,0.683,1.326,0.882c-0.003-0.001-0.006-0.002-0.008-0.003
		c0.345,0.344,0.89,0.684,1.327,0.882c-0.003-0.001-0.006-0.002-0.008-0.003c0.344,0.344,0.89,0.684,1.326,0.882
		c-0.003-0.001-0.006-0.002-0.008-0.003c0.344,0.344,0.89,0.684,1.326,0.882c-0.003-0.001-0.006-0.002-0.008-0.003
		c0.345,0.344,0.89,0.684,1.326,0.882c-0.003-0.001-0.006-0.002-0.008-0.003c1.902,1.901,5.552,2.146,8.052,2.146h0.916h53.993
		c1.928,0,8.669-0.316,8.669-3.415v-16.931v-4.534C289.292,160.418,289.277,160.31,289.25,160.202"/>
</g>
<path fill="#FFFFFF" d="M141.723,230.873c0,0.328-0.348,0.679-0.712,0.679h-29.703c-0.343,0-0.686-0.351-0.686-0.679V58.942
	c0-0.275,0.343-0.696,0.686-0.696h29.703c0.364,0,0.712,0.421,0.712,0.696V230.873z"/>
<path fill="#FFFFFF" d="M50.144,155.644c0,1.871-1.522,3.407-3.388,3.407H25.283c-1.871,0-3.398-1.536-3.398-3.407v-21.472
	c0-1.871,1.528-3.399,3.398-3.399h21.472c1.866,0,3.388,1.528,3.388,3.399V155.644z"/>
<path fill="#FFFFFF" d="M94.136,155.644c0,1.871-1.528,3.407-3.403,3.407H69.261c-1.867,0-3.389-1.536-3.389-3.407v-21.472
	c0-1.871,1.522-3.399,3.389-3.399h21.472c1.875,0,3.403,1.528,3.403,3.399V155.644z"/>
<path fill="#FFFFFF" d="M207.033,155.644c0,1.871-1.512,3.407-3.399,3.407h-21.437c-1.887,0-3.415-1.536-3.415-3.407v-21.472
	c0-1.871,1.528-3.399,3.415-3.399h21.437c1.888,0,3.399,1.528,3.399,3.399V155.644z"/>
<path fill="#FFFFFF" d="M251.042,155.644c0,1.871-1.528,3.407-3.417,3.407h-21.471c-1.89,0-3.383-1.536-3.383-3.407v-21.472
	c0-1.871,1.493-3.399,3.383-3.399h21.471c1.889,0,3.417,1.528,3.417,3.399V155.644z"/>
<path fill="#FFFFFF" d="M192.427,93.716c1.388,1.382,1.388,3.527,0,4.858l-15.174,15.155c-1.323,1.322-3.469,1.322-4.771,0
	l-15.243-15.155c-1.321-1.331-1.321-3.476,0-4.858l15.243-15.164c1.303-1.321,3.448-1.321,4.771,0L192.427,93.716z"/>
<path fill="#FFFFFF" d="M223.595,62.615c1.321,1.381,1.321,3.535,0,4.839l-15.225,15.174c-1.338,1.321-3.483,1.321-4.805,0
	l-15.225-15.174c-1.341-1.304-1.341-3.458,0-4.839l15.225-15.173c1.321-1.321,3.467-1.321,4.805,0L223.595,62.615z"/>
<path fill="#FFFFFF" d="M177.253,211.272c-1.323,1.287-3.469,1.287-4.771,0l-15.243-15.188c-1.321-1.307-1.321-3.443,0-4.867
	l15.243-15.147c1.303-1.305,3.448-1.305,4.771,0l15.174,15.147c1.388,1.424,1.388,3.561,0,4.867L177.253,211.272z"/>
<path fill="#FFFFFF" d="M208.371,242.355c-1.338,1.375-3.483,1.375-4.805,0l-15.225-15.163c-1.341-1.314-1.341-3.45,0-4.866
	l15.225-15.146c1.321-1.331,3.467-1.331,4.805,0l15.225,15.146c1.321,1.416,1.321,3.552,0,4.866L208.371,242.355z"/>
</svg>
