<?xml version="1.0" encoding="utf-8"?>
<!-- Generator: Adobe Illustrator 14.0.0, SVG Export Plug-In  -->
<!DOCTYPE svg PUBLIC "-//W3C//DTD SVG 1.1//EN" "http://www.w3.org/Graphics/SVG/1.1/DTD/svg11.dtd" [
	<!ENTITY ns_flows "http://ns.adobe.com/Flows/1.0/">
]>
<svg version="1.1"
	 xmlns="http://www.w3.org/2000/svg" xmlns:xlink="http://www.w3.org/1999/xlink" xmlns:a="http://ns.adobe.com/AdobeSVGViewerExtensions/3.0/"
	 x="0px" y="0px" width="163px" height="105px" viewBox="-3.767 -27.087 163 105" enable-background="new -3.767 -27.087 163 105"
	 xml:space="preserve">
<defs>
</defs>
<g>
	<path fill="#339999" d="M22.191,54.322c0.162,0.155,0.305,0.328,0.43,0.517c0.125,0.188,0.231,0.384,0.319,0.587
		c0.087,0.216,0.157,0.439,0.208,0.673c0.05,0.232,0.076,0.467,0.076,0.703v1.82c0,0.229-0.025,0.461-0.076,0.693
		c-0.051,0.232-0.12,0.457-0.208,0.673c-0.175,0.418-0.425,0.789-0.749,1.112c-0.324,0.324-0.695,0.573-1.113,0.749
		c-0.209,0.088-0.432,0.155-0.668,0.202c-0.236,0.047-0.469,0.071-0.698,0.071h-2.58v-8.498c0-0.088,0.033-0.165,0.101-0.233
		c0.067-0.067,0.148-0.101,0.243-0.101h2.236c0.229,0,0.462,0.023,0.698,0.07c0.236,0.048,0.459,0.118,0.668,0.213
		c0.209,0.088,0.408,0.192,0.597,0.313S22.036,54.154,22.191,54.322z M21.756,56.802c0-0.284-0.056-0.55-0.167-0.8
		c-0.111-0.249-0.257-0.467-0.438-0.652c-0.182-0.186-0.396-0.33-0.646-0.436c-0.249-0.104-0.511-0.156-0.787-0.156H18.6v5.908
		c0.188,0,0.375,0.001,0.56,0.005c0.185,0.003,0.372,0.005,0.56,0.005c0.276,0,0.538-0.056,0.787-0.167s0.464-0.26,0.646-0.445
		c0.181-0.185,0.328-0.4,0.438-0.647c0.111-0.246,0.167-0.511,0.167-0.794V56.802z"/>
</g>
<g>
	<path fill="#339999" d="M28.514,55.719h1.467v5.615c0,0.195-0.068,0.363-0.204,0.505c-0.136,0.143-0.306,0.213-0.509,0.213h-0.254
		c-0.136,0-0.253-0.047-0.352-0.142c-0.099-0.095-0.148-0.216-0.148-0.364l0.008-0.172l-0.162,0.182
		c-0.196,0.196-0.406,0.327-0.628,0.395c-0.223,0.067-0.446,0.102-0.669,0.102h-0.446c-0.378,0-0.737-0.081-1.074-0.243
		c-0.318-0.161-0.581-0.388-0.791-0.678c-0.183-0.242-0.323-0.525-0.421-0.85c-0.098-0.323-0.146-0.674-0.146-1.052v-3.511h1.467
		v3.511c0,0.209,0.027,0.404,0.081,0.587c0.054,0.182,0.118,0.333,0.191,0.455c0.175,0.209,0.407,0.313,0.696,0.313h0.443
		c0.134,0,0.282-0.067,0.443-0.202c0.162-0.135,0.316-0.32,0.464-0.557c0.168-0.263,0.301-0.538,0.398-0.824
		c0.097-0.287,0.146-0.538,0.146-0.754V55.719z"/>
</g>
<g>
	<path fill="#339999" d="M33.794,55.709c0.135,0,0.243,0.042,0.324,0.127c0.08,0.085,0.121,0.192,0.121,0.321v0.315
		c0,0.197-0.069,0.363-0.207,0.499c-0.139,0.136-0.303,0.204-0.491,0.204H33.42c-0.142,0-0.275,0.026-0.399,0.081
		c-0.125,0.054-0.233,0.128-0.324,0.223c-0.091,0.094-0.165,0.204-0.223,0.328c-0.058,0.125-0.086,0.258-0.086,0.399v3.106
		c0,0.209-0.069,0.384-0.207,0.525c-0.139,0.143-0.312,0.213-0.521,0.213h-0.243c-0.135,0-0.248-0.048-0.339-0.142
		c-0.091-0.095-0.136-0.21-0.136-0.345v-5.856h1.446v0.224c0.33-0.149,0.675-0.224,1.032-0.224H33.794z"/>
</g>
<g>
	<path fill="#339999" d="M39.143,56.296c0.387,0.384,0.581,0.85,0.581,1.396v3.652c0,0.209-0.07,0.379-0.209,0.511
		c-0.14,0.132-0.304,0.197-0.494,0.197h-0.367c-0.095,0-0.18-0.029-0.254-0.087c-0.075-0.058-0.119-0.131-0.133-0.219
		c-0.061,0.034-0.118,0.063-0.172,0.087c-0.054,0.023-0.111,0.042-0.172,0.056c-0.271,0.108-0.55,0.163-0.84,0.163h-0.496
		c-0.546,0-1.012-0.192-1.396-0.576c-0.385-0.392-0.577-0.86-0.577-1.406v-0.203c0-0.303,0.058-0.586,0.172-0.85
		c0.115-0.263,0.28-0.499,0.496-0.708c0.513-0.465,1.237-0.698,2.175-0.698h0.789c-0.02-0.121-0.077-0.223-0.172-0.304
		c-0.095-0.08-0.206-0.121-0.334-0.121h-2.013v-1.467h2.013c0.264,0,0.517,0.051,0.761,0.151
		C38.746,55.972,38.959,56.113,39.143,56.296z M38.257,59.058h-0.8c-0.445,0-0.789,0.07-1.031,0.211
		c-0.243,0.141-0.364,0.338-0.364,0.593v0.201c0,0.147,0.05,0.271,0.151,0.372c0.102,0.1,0.226,0.15,0.374,0.15h0.496
		c0.095,0,0.209-0.023,0.344-0.07s0.27-0.128,0.405-0.241c0.147-0.114,0.256-0.234,0.323-0.362c0.067-0.127,0.102-0.284,0.102-0.472
		V59.058z"/>
</g>
<g>
	<path fill="#339999" d="M45.762,56.579c0.271,0.27,0.476,0.573,0.617,0.91c0.162,0.392,0.243,0.772,0.243,1.144v0.506
		c0,0.363-0.081,0.741-0.243,1.133c-0.142,0.344-0.347,0.65-0.617,0.92c-0.263,0.264-0.569,0.473-0.92,0.628
		c-0.371,0.155-0.749,0.232-1.134,0.232c-0.397,0-0.775-0.074-1.133-0.223c-0.169-0.081-0.332-0.17-0.49-0.268
		c-0.159-0.099-0.306-0.222-0.44-0.37h0.01c-0.142-0.142-0.263-0.288-0.363-0.439c-0.102-0.152-0.189-0.313-0.264-0.48
		c-0.067-0.162-0.121-0.343-0.162-0.541c-0.04-0.199-0.061-0.396-0.061-0.592v-5.848h1.447v2.813
		c0.054-0.034,0.107-0.061,0.161-0.081c0.055-0.021,0.108-0.044,0.162-0.071c0.385-0.154,0.763-0.232,1.133-0.232
		c0.385,0,0.763,0.078,1.134,0.232C45.193,56.106,45.5,56.315,45.762,56.579z M45.156,58.633c0-0.203-0.039-0.39-0.116-0.562
		c-0.078-0.172-0.183-0.324-0.313-0.456c-0.132-0.131-0.284-0.235-0.456-0.313c-0.172-0.077-0.358-0.116-0.562-0.116
		c-0.195,0-0.383,0.039-0.562,0.116c-0.179,0.078-0.333,0.183-0.465,0.313c-0.132,0.132-0.236,0.284-0.313,0.456
		c-0.078,0.172-0.116,0.358-0.116,0.562v0.506c0,0.202,0.038,0.389,0.116,0.561c0.077,0.173,0.182,0.324,0.313,0.456
		c0.132,0.131,0.286,0.235,0.465,0.313c0.179,0.077,0.366,0.116,0.562,0.116c0.203,0,0.39-0.039,0.562-0.116
		c0.172-0.078,0.324-0.183,0.456-0.313c0.131-0.132,0.235-0.283,0.313-0.456c0.077-0.172,0.116-0.358,0.116-0.561V58.633z"/>
</g>
<g>
	<path fill="#339999" d="M47.655,53.327h1.447v8.012c0,0.209-0.071,0.387-0.213,0.531c-0.142,0.146-0.317,0.218-0.526,0.218h-0.212
		c-0.148,0-0.269-0.047-0.359-0.142s-0.137-0.216-0.137-0.364V53.327z"/>
</g>
<g>
	<path fill="#339999" d="M53.453,55.719c0.338,0,0.654,0.063,0.951,0.188s0.563,0.305,0.8,0.541c0.242,0.243,0.425,0.513,0.546,0.81
		s0.183,0.613,0.183,0.95v1.326h-2.904c-0.202,0-0.37-0.069-0.506-0.208c-0.135-0.138-0.202-0.309-0.202-0.511v-0.323
		c0-0.115,0.042-0.215,0.127-0.299c0.084-0.084,0.184-0.127,0.298-0.127h1.72c-0.02-0.121-0.059-0.235-0.116-0.344
		c-0.057-0.107-0.131-0.202-0.223-0.283c-0.091-0.081-0.193-0.144-0.309-0.188c-0.114-0.043-0.235-0.065-0.364-0.065h-0.395
		c-0.202,0-0.395,0.039-0.576,0.116c-0.182,0.078-0.341,0.185-0.476,0.319s-0.241,0.291-0.318,0.47
		c-0.078,0.179-0.116,0.369-0.116,0.572v0.435c0,0.209,0.038,0.403,0.116,0.582c0.077,0.179,0.184,0.335,0.318,0.47
		c0.135,0.136,0.294,0.241,0.476,0.319c0.182,0.077,0.374,0.116,0.576,0.116h0.395c0.169,0,0.326-0.037,0.471-0.111
		c0.146-0.074,0.265-0.176,0.359-0.304l-0.01,0.011c0.121-0.196,0.296-0.246,0.525-0.152l0.243,0.132
		c0.128,0.074,0.226,0.167,0.293,0.278s0.102,0.23,0.102,0.358c0,0.088-0.017,0.176-0.051,0.264
		c-0.033,0.087-0.088,0.165-0.162,0.232c-0.128,0.128-0.276,0.256-0.444,0.385c-0.405,0.249-0.847,0.374-1.326,0.374h-0.395
		c-0.397,0-0.778-0.077-1.143-0.232h0.01c-0.337-0.135-0.65-0.348-0.94-0.638c-0.264-0.263-0.476-0.573-0.638-0.931
		c-0.067-0.169-0.121-0.353-0.162-0.552c-0.04-0.198-0.061-0.399-0.061-0.602v-0.435c0-0.196,0.021-0.394,0.061-0.592
		c0.041-0.199,0.095-0.383,0.162-0.552c0.162-0.357,0.374-0.668,0.638-0.931c0.29-0.29,0.604-0.502,0.94-0.638h-0.01
		c0.364-0.154,0.745-0.232,1.143-0.232H53.453z"/>
</g>
<g>
	<path fill="#339999" d="M75.719,57.378c0.27,0.27,0.473,0.571,0.611,0.905c0.138,0.334,0.206,0.687,0.206,1.058
		s-0.069,0.723-0.207,1.057c-0.139,0.334-0.343,0.636-0.612,0.905c-0.27,0.271-0.571,0.475-0.905,0.612
		c-0.334,0.139-0.687,0.208-1.057,0.208H71.63c-0.088,0-0.165-0.034-0.232-0.103c-0.067-0.067-0.102-0.146-0.102-0.234V61.43
		c0-0.217,0.076-0.4,0.228-0.55c0.152-0.149,0.329-0.225,0.531-0.225l1.7,0.011c0.182,0,0.352-0.035,0.511-0.105
		c0.158-0.071,0.298-0.167,0.42-0.288c0.121-0.121,0.216-0.26,0.283-0.418s0.101-0.331,0.101-0.519c0-0.182-0.033-0.35-0.101-0.504
		c-0.067-0.155-0.162-0.293-0.283-0.413c-0.122-0.121-0.262-0.217-0.42-0.288c-0.159-0.07-0.329-0.105-0.511-0.105h-0.598
		c-0.323,0-0.627-0.061-0.91-0.183c-0.283-0.121-0.54-0.294-0.769-0.517c-0.223-0.224-0.394-0.479-0.511-0.766
		c-0.118-0.287-0.178-0.593-0.178-0.918c0-0.311,0.06-0.609,0.178-0.896c0.117-0.288,0.288-0.543,0.511-0.766
		c0.465-0.467,1.024-0.7,1.679-0.7h2.398c0.094,0,0.175,0.034,0.242,0.103c0.067,0.067,0.102,0.146,0.102,0.234v0.366
		c0,0.211-0.074,0.391-0.223,0.54s-0.331,0.225-0.547,0.225h-1.966c-0.127,0-0.247,0.023-0.357,0.07
		c-0.111,0.047-0.205,0.113-0.282,0.197c-0.077,0.085-0.142,0.181-0.191,0.288c-0.051,0.108-0.076,0.223-0.076,0.345
		c0,0.128,0.025,0.247,0.076,0.358s0.114,0.208,0.191,0.289c0.077,0.08,0.172,0.145,0.282,0.191c0.111,0.048,0.23,0.071,0.358,0.071
		h0.596c0.37,0,0.722,0.069,1.055,0.207C75.149,56.904,75.451,57.108,75.719,57.378z"/>
</g>
<g>
	<path fill="#339999" d="M77.507,53.149h1.447v1.021c0,0.162-0.06,0.304-0.178,0.425s-0.261,0.183-0.43,0.183h-0.435
		c-0.115,0-0.211-0.041-0.289-0.122c-0.077-0.081-0.116-0.175-0.116-0.283V53.149z M77.507,55.709h1.447v5.594
		c0,0.209-0.071,0.387-0.213,0.531c-0.142,0.146-0.317,0.218-0.526,0.218h-0.212c-0.148,0-0.269-0.047-0.359-0.142
		s-0.137-0.216-0.137-0.364V55.709z"/>
</g>
<g>
	<path fill="#339999" d="M85.8,55.719c0.277,0,0.533,0.056,0.771,0.167c0.236,0.111,0.438,0.274,0.607,0.49l-0.01-0.01
		c0.148,0.176,0.26,0.381,0.334,0.617s0.111,0.482,0.111,0.738v3.49c0,0.229-0.083,0.427-0.249,0.592
		c-0.167,0.165-0.365,0.248-0.596,0.248h-0.214c-0.109,0-0.204-0.039-0.286-0.116c-0.081-0.077-0.122-0.17-0.122-0.277V57.73
		c0-0.033-0.003-0.08-0.01-0.141s-0.023-0.121-0.051-0.182s-0.063-0.113-0.106-0.157c-0.044-0.043-0.105-0.065-0.187-0.065h-0.455
		c-0.027,0-0.066,0.007-0.117,0.021c-0.05,0.014-0.105,0.033-0.167,0.061c-0.061,0.026-0.123,0.061-0.187,0.101
		c-0.064,0.041-0.123,0.088-0.177,0.142v-0.01c-0.081,0.101-0.134,0.207-0.157,0.317c-0.023,0.111-0.035,0.211-0.035,0.298v3.069
		c0,0.114-0.022,0.224-0.066,0.328s-0.104,0.193-0.182,0.268c-0.078,0.074-0.167,0.133-0.269,0.177
		c-0.101,0.043-0.209,0.065-0.323,0.065h-0.223c-0.108,0-0.202-0.04-0.283-0.121s-0.121-0.172-0.121-0.272V57.73
		c0-0.033-0.004-0.08-0.011-0.141S83,57.469,82.976,57.408s-0.059-0.113-0.105-0.157c-0.047-0.043-0.11-0.065-0.191-0.065h-0.452
		c-0.027,0-0.065,0.007-0.115,0.021c-0.051,0.014-0.106,0.033-0.166,0.061c-0.061,0.026-0.123,0.061-0.187,0.101
		c-0.063,0.041-0.122,0.088-0.176,0.142v-0.01c-0.08,0.101-0.133,0.207-0.156,0.317c-0.023,0.111-0.035,0.211-0.035,0.298v3.1
		c0,0.229-0.081,0.426-0.244,0.591s-0.36,0.247-0.591,0.247h-0.224c-0.116,0-0.213-0.039-0.291-0.116
		c-0.078-0.078-0.117-0.171-0.117-0.278v-5.959h1.467l-0.01,0.193c0.243-0.115,0.493-0.173,0.75-0.173h0.547
		c0.514,0,0.942,0.176,1.287,0.526c0.392-0.351,0.817-0.526,1.276-0.526H85.8z"/>
</g>
<g>
	<path fill="#339999" d="M93.105,56.544c0.136,0.129,0.253,0.271,0.352,0.431c0.098,0.158,0.188,0.322,0.27,0.491
		c0.156,0.364,0.234,0.745,0.234,1.144v0.526c0,0.196-0.021,0.392-0.061,0.588c-0.041,0.195-0.099,0.377-0.173,0.546
		c-0.067,0.162-0.153,0.322-0.259,0.481c-0.104,0.158-0.225,0.306-0.359,0.44c-0.271,0.27-0.578,0.482-0.923,0.638
		c-0.365,0.148-0.747,0.223-1.146,0.223c-0.392,0-0.767-0.074-1.125-0.223c-0.054-0.021-0.092-0.034-0.111-0.04
		c-0.021-0.007-0.039-0.014-0.056-0.021c-0.018-0.007-0.036-0.017-0.057-0.03c-0.02-0.014-0.054-0.037-0.101-0.071v2.064
		c0,0.209-0.071,0.386-0.213,0.531c-0.142,0.145-0.317,0.217-0.526,0.217h-0.212c-0.148,0-0.269-0.047-0.359-0.142
		s-0.137-0.216-0.137-0.364v-5.368c0-0.398,0.074-0.78,0.223-1.145c0.088-0.169,0.179-0.332,0.273-0.491
		c0.095-0.158,0.209-0.302,0.345-0.431v0.01c0.263-0.256,0.573-0.466,0.932-0.627c0.168-0.075,0.351-0.132,0.546-0.173
		c0.196-0.04,0.389-0.061,0.578-0.061c0.195,0,0.393,0.021,0.592,0.062c0.199,0.04,0.383,0.098,0.552,0.173
		c0.358,0.163,0.665,0.373,0.922,0.632V56.544z M92.494,58.612c0-0.202-0.039-0.392-0.116-0.566
		c-0.078-0.176-0.181-0.329-0.309-0.461c-0.129-0.131-0.282-0.235-0.461-0.313c-0.179-0.077-0.369-0.116-0.571-0.116
		c-0.195,0-0.381,0.039-0.557,0.116c-0.175,0.078-0.328,0.183-0.46,0.313c-0.132,0.132-0.236,0.285-0.313,0.461
		c-0.078,0.175-0.116,0.364-0.116,0.566v0.526c0,0.202,0.038,0.389,0.116,0.561c0.077,0.173,0.182,0.324,0.313,0.456
		c0.132,0.131,0.285,0.235,0.46,0.313c0.176,0.077,0.361,0.116,0.557,0.116c0.202,0,0.393-0.039,0.571-0.116
		c0.179-0.078,0.332-0.183,0.461-0.313c0.128-0.132,0.23-0.283,0.309-0.456c0.077-0.172,0.116-0.358,0.116-0.561V58.612z"/>
</g>
<g>
	<path fill="#339999" d="M94.62,53.291h1.447v8.012c0,0.209-0.071,0.387-0.213,0.531c-0.142,0.146-0.317,0.218-0.526,0.218h-0.212
		c-0.148,0-0.269-0.047-0.359-0.142s-0.137-0.216-0.137-0.364V53.291z"/>
</g>
<g>
	<path fill="#339999" d="M100.348,55.719c0.338,0,0.654,0.063,0.951,0.188s0.563,0.305,0.8,0.541
		c0.242,0.243,0.425,0.513,0.546,0.81s0.183,0.613,0.183,0.95v1.326h-2.904c-0.202,0-0.37-0.069-0.506-0.208
		c-0.135-0.138-0.202-0.309-0.202-0.511v-0.323c0-0.115,0.042-0.215,0.127-0.299c0.084-0.084,0.184-0.127,0.298-0.127h1.72
		c-0.02-0.121-0.059-0.235-0.116-0.344c-0.057-0.107-0.131-0.202-0.223-0.283c-0.091-0.081-0.193-0.144-0.309-0.188
		c-0.114-0.043-0.235-0.065-0.364-0.065h-0.395c-0.202,0-0.395,0.039-0.576,0.116c-0.182,0.078-0.341,0.185-0.476,0.319
		s-0.241,0.291-0.318,0.47c-0.078,0.179-0.116,0.369-0.116,0.572v0.435c0,0.209,0.038,0.403,0.116,0.582
		c0.077,0.179,0.184,0.335,0.318,0.47c0.135,0.136,0.294,0.241,0.476,0.319c0.182,0.077,0.374,0.116,0.576,0.116h0.395
		c0.169,0,0.326-0.037,0.471-0.111c0.146-0.074,0.265-0.176,0.359-0.304l-0.01,0.011c0.121-0.196,0.296-0.246,0.525-0.152
		l0.243,0.132c0.128,0.074,0.226,0.167,0.293,0.278s0.102,0.23,0.102,0.358c0,0.088-0.017,0.176-0.051,0.264
		c-0.033,0.087-0.088,0.165-0.162,0.232c-0.128,0.128-0.276,0.256-0.444,0.385c-0.405,0.249-0.847,0.374-1.326,0.374h-0.395
		c-0.397,0-0.778-0.077-1.143-0.232h0.01c-0.337-0.135-0.65-0.348-0.94-0.638c-0.264-0.263-0.476-0.573-0.638-0.931
		c-0.067-0.169-0.121-0.353-0.162-0.552c-0.04-0.198-0.061-0.399-0.061-0.602v-0.435c0-0.196,0.021-0.394,0.061-0.592
		c0.041-0.199,0.095-0.383,0.162-0.552c0.162-0.357,0.374-0.668,0.638-0.931c0.29-0.29,0.604-0.502,0.94-0.638h-0.01
		c0.364-0.154,0.745-0.232,1.143-0.232H100.348z"/>
</g>
<g>
	<path fill="#339999" d="M112.633,54.171c0.593,0.587,0.89,1.292,0.89,2.114c0,0.398-0.075,0.777-0.227,1.139
		c-0.151,0.36-0.372,0.686-0.661,0.976c-0.283,0.29-0.604,0.51-0.965,0.658c-0.359,0.148-0.738,0.223-1.136,0.223h-1.493
		c-0.102,0-0.183-0.034-0.243-0.103v2.945h-1.467v-8.498c0-0.088,0.034-0.165,0.102-0.233c0.067-0.067,0.145-0.101,0.232-0.101
		h2.863c0.397,0,0.777,0.074,1.138,0.223C112.028,53.662,112.35,53.881,112.633,54.171z M108.798,58.21
		c0.067-0.115,0.158-0.21,0.272-0.285c0.114-0.074,0.245-0.112,0.394-0.112h1.069c0.208,0,0.404-0.04,0.59-0.12
		c0.185-0.081,0.346-0.19,0.484-0.328c0.138-0.138,0.247-0.299,0.327-0.484c0.081-0.185,0.121-0.385,0.121-0.6
		c0-0.208-0.04-0.406-0.121-0.595c-0.08-0.188-0.189-0.352-0.327-0.489c-0.139-0.138-0.3-0.245-0.484-0.322
		c-0.186-0.077-0.382-0.116-0.59-0.116h-1.735V58.21z"/>
</g>
<g>
	<path fill="#339999" d="M118.487,55.708h1.467v5.615c0,0.195-0.067,0.363-0.203,0.505c-0.137,0.143-0.307,0.213-0.51,0.213h-0.255
		c-0.136,0-0.253-0.047-0.352-0.142s-0.147-0.216-0.147-0.364l0.008-0.172l-0.162,0.182c-0.196,0.196-0.405,0.327-0.629,0.395
		c-0.223,0.067-0.445,0.102-0.668,0.102h-0.446c-0.379,0-0.736-0.081-1.074-0.243c-0.317-0.161-0.581-0.388-0.791-0.678
		c-0.182-0.242-0.322-0.525-0.42-0.85c-0.099-0.323-0.147-0.674-0.147-1.052v-3.511h1.467v3.511c0,0.209,0.027,0.404,0.081,0.587
		c0.054,0.182,0.117,0.333,0.191,0.455c0.175,0.209,0.406,0.313,0.695,0.313h0.444c0.134,0,0.282-0.067,0.443-0.202
		s0.315-0.32,0.464-0.557c0.168-0.263,0.301-0.538,0.397-0.824c0.098-0.287,0.146-0.538,0.146-0.754V55.708z"/>
</g>
<g>
	<path fill="#339999" d="M125.737,56.579c0.271,0.27,0.476,0.573,0.617,0.91c0.162,0.392,0.243,0.772,0.243,1.144v0.506
		c0,0.363-0.081,0.741-0.243,1.133c-0.142,0.344-0.347,0.65-0.617,0.92c-0.263,0.264-0.569,0.473-0.92,0.628
		c-0.371,0.155-0.749,0.232-1.134,0.232c-0.397,0-0.775-0.074-1.133-0.223c-0.169-0.081-0.332-0.17-0.49-0.268
		c-0.159-0.099-0.306-0.222-0.44-0.37h0.01c-0.142-0.142-0.263-0.288-0.363-0.439c-0.102-0.152-0.189-0.313-0.264-0.48
		c-0.067-0.162-0.121-0.343-0.162-0.541c-0.04-0.199-0.061-0.396-0.061-0.592v-5.848h1.447v2.813
		c0.054-0.034,0.107-0.061,0.161-0.081c0.055-0.021,0.108-0.044,0.162-0.071c0.385-0.154,0.763-0.232,1.133-0.232
		c0.385,0,0.763,0.078,1.134,0.232C125.167,56.106,125.474,56.315,125.737,56.579z M125.13,58.633c0-0.203-0.039-0.39-0.116-0.562
		c-0.078-0.172-0.183-0.324-0.313-0.456c-0.132-0.131-0.284-0.235-0.456-0.313c-0.172-0.077-0.358-0.116-0.562-0.116
		c-0.195,0-0.383,0.039-0.562,0.116c-0.179,0.078-0.333,0.183-0.465,0.313c-0.132,0.132-0.236,0.284-0.313,0.456
		c-0.078,0.172-0.116,0.358-0.116,0.562v0.506c0,0.202,0.038,0.389,0.116,0.561c0.077,0.173,0.182,0.324,0.313,0.456
		c0.132,0.131,0.286,0.235,0.465,0.313c0.179,0.077,0.366,0.116,0.562,0.116c0.203,0,0.39-0.039,0.562-0.116
		c0.172-0.078,0.324-0.183,0.456-0.313c0.131-0.132,0.235-0.283,0.313-0.456c0.077-0.172,0.116-0.358,0.116-0.561V58.633z"/>
</g>
<g>
	<path fill="#339999" d="M132.238,57.348c0.27,0.27,0.473,0.571,0.611,0.905c0.138,0.334,0.206,0.687,0.206,1.058
		s-0.069,0.723-0.207,1.057c-0.139,0.334-0.343,0.636-0.612,0.905c-0.27,0.271-0.571,0.475-0.905,0.612
		c-0.334,0.139-0.687,0.208-1.057,0.208h-2.125c-0.088,0-0.165-0.034-0.232-0.103c-0.067-0.067-0.102-0.146-0.102-0.234v-0.356
		c0-0.217,0.076-0.4,0.228-0.55c0.152-0.149,0.329-0.225,0.531-0.225l1.7,0.011c0.182,0,0.352-0.035,0.511-0.105
		c0.158-0.071,0.298-0.167,0.42-0.288c0.121-0.121,0.216-0.26,0.283-0.418s0.101-0.331,0.101-0.519c0-0.182-0.033-0.35-0.101-0.504
		c-0.067-0.155-0.162-0.293-0.283-0.413c-0.122-0.121-0.262-0.217-0.42-0.288c-0.159-0.07-0.329-0.105-0.511-0.105h-0.598
		c-0.323,0-0.627-0.061-0.91-0.183c-0.283-0.121-0.54-0.294-0.769-0.517c-0.223-0.224-0.394-0.479-0.511-0.766
		c-0.118-0.287-0.178-0.593-0.178-0.918c0-0.311,0.06-0.609,0.178-0.896c0.117-0.288,0.288-0.543,0.511-0.766
		c0.465-0.467,1.024-0.7,1.679-0.7h2.398c0.094,0,0.175,0.034,0.242,0.103c0.067,0.067,0.102,0.146,0.102,0.234v0.366
		c0,0.211-0.074,0.391-0.223,0.54s-0.331,0.225-0.547,0.225h-1.966c-0.127,0-0.247,0.023-0.357,0.07
		c-0.111,0.047-0.205,0.113-0.282,0.197c-0.077,0.085-0.142,0.181-0.191,0.288c-0.051,0.108-0.076,0.223-0.076,0.345
		c0,0.128,0.025,0.247,0.076,0.358s0.114,0.208,0.191,0.289c0.077,0.08,0.172,0.145,0.282,0.191c0.111,0.048,0.23,0.071,0.358,0.071
		h0.596c0.37,0,0.722,0.069,1.055,0.207C131.667,56.874,131.969,57.078,132.238,57.348z"/>
</g>
<g>
	<path fill="#339999" d="M138.078,55.719h1.467v5.615c0,0.195-0.067,0.363-0.203,0.505c-0.137,0.143-0.307,0.213-0.51,0.213h-0.255
		c-0.136,0-0.253-0.047-0.352-0.142s-0.147-0.216-0.147-0.364l0.008-0.172l-0.162,0.182c-0.196,0.196-0.405,0.327-0.629,0.395
		c-0.223,0.067-0.445,0.102-0.668,0.102h-0.446c-0.379,0-0.736-0.081-1.074-0.243c-0.317-0.161-0.581-0.388-0.791-0.678
		c-0.182-0.242-0.322-0.525-0.42-0.85c-0.099-0.323-0.147-0.674-0.147-1.052v-3.511h1.467v3.511c0,0.209,0.027,0.404,0.081,0.587
		c0.054,0.182,0.117,0.333,0.191,0.455c0.175,0.209,0.406,0.313,0.695,0.313h0.444c0.134,0,0.282-0.067,0.443-0.202
		s0.315-0.32,0.464-0.557c0.168-0.263,0.301-0.538,0.397-0.824c0.098-0.287,0.146-0.538,0.146-0.754V55.719z"/>
</g>
<g>
	<path fill="#339999" d="M145.462,56.579c0.271,0.27,0.476,0.573,0.617,0.91c0.162,0.392,0.243,0.772,0.243,1.144v0.506
		c0,0.363-0.081,0.741-0.243,1.133c-0.142,0.344-0.347,0.65-0.617,0.92c-0.263,0.264-0.569,0.473-0.92,0.628
		c-0.371,0.155-0.749,0.232-1.134,0.232c-0.397,0-0.775-0.074-1.133-0.223c-0.169-0.081-0.332-0.17-0.49-0.268
		c-0.159-0.099-0.306-0.222-0.44-0.37h0.01c-0.142-0.142-0.263-0.288-0.363-0.439c-0.102-0.152-0.189-0.313-0.264-0.48
		c-0.067-0.162-0.121-0.343-0.162-0.541c-0.04-0.199-0.061-0.396-0.061-0.592v-5.848h1.447v2.813
		c0.054-0.034,0.107-0.061,0.161-0.081c0.055-0.021,0.108-0.044,0.162-0.071c0.385-0.154,0.763-0.232,1.133-0.232
		c0.385,0,0.763,0.078,1.134,0.232C144.893,56.106,145.2,56.315,145.462,56.579z M144.856,58.633c0-0.203-0.039-0.39-0.116-0.562
		c-0.078-0.172-0.183-0.324-0.313-0.456c-0.132-0.131-0.284-0.235-0.456-0.313c-0.172-0.077-0.358-0.116-0.562-0.116
		c-0.195,0-0.383,0.039-0.562,0.116c-0.179,0.078-0.333,0.183-0.465,0.313c-0.132,0.132-0.236,0.284-0.313,0.456
		c-0.078,0.172-0.116,0.358-0.116,0.562v0.506c0,0.202,0.038,0.389,0.116,0.561c0.077,0.173,0.182,0.324,0.313,0.456
		c0.132,0.131,0.286,0.235,0.465,0.313c0.179,0.077,0.366,0.116,0.562,0.116c0.203,0,0.39-0.039,0.562-0.116
		c0.172-0.078,0.324-0.183,0.456-0.313c0.131-0.132,0.235-0.283,0.313-0.456c0.077-0.172,0.116-0.358,0.116-0.561V58.633z"/>
</g>
<path fill="#339999" d="M156.748,48.917c0.007-0.142-0.021-0.282-0.115-0.394l-9.376-10.959c-0.206-0.24-0.564-0.268-0.803-0.063
	c-0.238,0.203-0.267,0.563-0.063,0.801l8.573,10.021H0.569C0.255,48.324,0,48.578,0,48.893c0,0.036,0.014,0.067,0.021,0.102
	c-0.006,0.142,0.021,0.281,0.116,0.393l9.376,10.961c0.112,0.132,0.272,0.199,0.433,0.199c0.13,0,0.262-0.045,0.369-0.137
	c0.239-0.203,0.267-0.563,0.063-0.801L1.804,49.586H156.2c0.314,0,0.568-0.254,0.568-0.568
	C156.768,48.981,156.754,48.951,156.748,48.917z"/>
<g>
	<path fill="#339999" d="M30.758,5.253c0.816,0.783,1.538,1.649,2.168,2.601c0.629,0.952,1.164,1.938,1.605,2.958
		c0.441,1.089,0.791,2.219,1.047,3.392c0.254,1.173,0.381,2.355,0.381,3.545v9.181c0,1.156-0.127,2.32-0.381,3.494
		c-0.256,1.173-0.605,2.304-1.047,3.392c-0.885,2.108-2.141,3.978-3.774,5.611c-1.632,1.631-3.502,2.889-5.61,3.773
		c-1.054,0.441-2.176,0.781-3.366,1.02c-1.191,0.238-2.364,0.357-3.52,0.357H5.257V1.734c0-0.441,0.169-0.833,0.51-1.173
		c0.34-0.339,0.748-0.51,1.224-0.51h11.271c1.156,0,2.329,0.119,3.52,0.357c1.19,0.238,2.312,0.595,3.366,1.071
		c1.054,0.442,2.058,0.969,3.01,1.581C29.108,3.672,29.976,4.404,30.758,5.253z M28.565,17.749c0-1.428-0.28-2.771-0.84-4.029
		c-0.56-1.257-1.296-2.354-2.211-3.29c-0.915-0.935-2-1.666-3.254-2.193c-1.254-0.526-2.576-0.791-3.966-0.791h-5.643v29.786
		c0.948,0,1.889,0.008,2.821,0.025c0.933,0.017,1.873,0.025,2.822,0.025c1.39,0,2.711-0.281,3.966-0.842
		c1.254-0.561,2.339-1.309,3.254-2.244c0.915-0.935,1.651-2.022,2.211-3.264c0.56-1.241,0.84-2.576,0.84-4.003V17.749z"/>
</g>
<g>
	<path fill="#339999" d="M65.653,20.656c1.357,1.36,2.383,2.881,3.08,4.564c0.693,1.683,1.043,3.46,1.043,5.33
		c0,1.87-0.35,3.646-1.047,5.33s-1.725,3.205-3.086,4.565c-1.359,1.359-2.881,2.389-4.564,3.086
		c-1.682,0.696-3.459,1.045-5.33,1.045H45.04c-0.443,0-0.834-0.171-1.174-0.513c-0.34-0.344-0.51-0.737-0.51-1.183v-1.797
		c0-1.096,0.383-2.02,1.146-2.773c0.766-0.754,1.658-1.129,2.678-1.129l8.568,0.051c0.918,0,1.777-0.179,2.576-0.534
		c0.799-0.356,1.506-0.839,2.117-1.448c0.611-0.61,1.088-1.313,1.428-2.109c0.34-0.796,0.51-1.668,0.51-2.617
		c0-0.914-0.17-1.761-0.51-2.54s-0.816-1.474-1.428-2.083c-0.611-0.61-1.318-1.093-2.117-1.448s-1.658-0.534-2.576-0.534h-3.008
		c-1.633,0-3.162-0.306-4.59-0.92c-1.43-0.613-2.721-1.482-3.877-2.606c-1.123-1.125-1.98-2.411-2.576-3.859
		c-0.596-1.448-0.893-2.99-0.893-4.625c0-1.567,0.297-3.075,0.893-4.523c0.596-1.448,1.453-2.734,2.576-3.859
		C46.62,1.175,49.442,0,52.741,0h12.088c0.475,0,0.883,0.171,1.223,0.514s0.51,0.736,0.51,1.181v1.849
		c0,1.062-0.373,1.968-1.121,2.722c-0.748,0.754-1.666,1.13-2.754,1.13h-9.91c-0.645,0-1.246,0.12-1.805,0.357
		c-0.561,0.238-1.035,0.57-1.424,0.995c-0.389,0.425-0.711,0.91-0.965,1.454c-0.254,0.544-0.381,1.122-0.381,1.734
		c0,0.646,0.127,1.25,0.381,1.811s0.576,1.046,0.967,1.454c0.391,0.408,0.865,0.732,1.424,0.969
		c0.561,0.238,1.162,0.357,1.807,0.357h3.004c1.863,0,3.637,0.349,5.314,1.045C62.778,18.268,64.295,19.296,65.653,20.656z"/>
</g>
<g>
	<path fill="#339999" d="M102.592,4.462c2.991,2.958,4.488,6.512,4.488,10.66c0,2.006-0.382,3.919-1.146,5.738
		c-0.764,1.819-1.875,3.46-3.333,4.922c-1.426,1.462-3.046,2.567-4.86,3.315c-1.815,0.749-3.725,1.122-5.727,1.122h-7.531
		c-0.51,0-0.917-0.17-1.222-0.513v14.845h-7.396V1.708c0-0.441,0.17-0.833,0.51-1.173c0.34-0.339,0.73-0.51,1.174-0.51h14.435
		c2.006,0,3.918,0.375,5.737,1.122C99.54,1.896,101.164,3.001,102.592,4.462z M83.262,24.826c0.339-0.582,0.796-1.061,1.372-1.438
		c0.576-0.376,1.237-0.565,1.983-0.565h5.39c1.051,0,2.042-0.203,2.975-0.609c0.932-0.407,1.746-0.957,2.44-1.652
		c0.695-0.695,1.246-1.507,1.652-2.44s0.61-1.94,0.61-3.025c0-1.05-0.204-2.05-0.61-2.999s-0.957-1.771-1.652-2.466
		c-0.694-0.695-1.509-1.237-2.44-1.626c-0.933-0.39-1.924-0.585-2.975-0.585h-8.745V24.826z"/>
</g>
<g>
	<path fill="#339999" d="M135.628,20.656c1.356,1.36,2.383,2.881,3.079,4.564c0.694,1.683,1.043,3.46,1.043,5.33
		c0,1.87-0.35,3.646-1.046,5.33c-0.697,1.683-1.726,3.205-3.086,4.565c-1.36,1.359-2.881,2.389-4.564,3.086
		c-1.683,0.696-3.46,1.045-5.33,1.045h-10.71c-0.442,0-0.834-0.171-1.173-0.513c-0.341-0.344-0.511-0.737-0.511-1.183v-1.797
		c0-1.096,0.383-2.02,1.147-2.773c0.766-0.754,1.658-1.129,2.678-1.129l8.568,0.051c0.918,0,1.776-0.179,2.576-0.534
		c0.799-0.356,1.505-0.839,2.116-1.448c0.612-0.61,1.088-1.313,1.429-2.109c0.339-0.796,0.51-1.668,0.51-2.617
		c0-0.914-0.171-1.761-0.51-2.54c-0.341-0.779-0.816-1.474-1.429-2.083c-0.611-0.61-1.317-1.093-2.116-1.448
		c-0.8-0.355-1.658-0.534-2.576-0.534h-3.009c-1.632,0-3.162-0.306-4.59-0.92c-1.429-0.613-2.721-1.482-3.877-2.606
		c-1.122-1.125-1.98-2.411-2.575-3.859c-0.596-1.448-0.893-2.99-0.893-4.625c0-1.567,0.297-3.075,0.893-4.523
		c0.595-1.448,1.453-2.734,2.575-3.859C116.595,1.175,119.417,0,122.715,0h12.088c0.476,0,0.884,0.171,1.224,0.514
		s0.51,0.736,0.51,1.181v1.849c0,1.062-0.374,1.968-1.122,2.722c-0.748,0.754-1.666,1.13-2.754,1.13h-9.91
		c-0.644,0-1.246,0.12-1.805,0.357c-0.56,0.238-1.034,0.57-1.423,0.995c-0.39,0.425-0.712,0.91-0.966,1.454
		c-0.254,0.544-0.381,1.122-0.381,1.734c0,0.646,0.127,1.25,0.382,1.811c0.254,0.561,0.576,1.046,0.967,1.454
		c0.39,0.408,0.864,0.732,1.424,0.969c0.56,0.238,1.162,0.357,1.807,0.357h3.003c1.864,0,3.637,0.349,5.315,1.045
		C132.753,18.268,134.271,19.296,135.628,20.656z"/>
</g>
<g>
	<path fill="#339999" d="M68.194,62.123h-2.105l-0.913-0.854c-0.737,0.68-1.601,1.02-2.589,1.02c-0.928,0-1.665-0.225-2.213-0.674
		s-0.822-1.047-0.822-1.791c0-0.949,0.506-1.693,1.516-2.234c-0.423-0.309-0.714-0.6-0.873-0.875
		c-0.16-0.276-0.239-0.588-0.239-0.936c0-0.559,0.239-1.018,0.717-1.377c0.479-0.36,1.142-0.54,1.99-0.54
		c0.784,0,1.403,0.157,1.855,0.473c0.453,0.315,0.68,0.733,0.68,1.257c0,0.975-0.595,1.658-1.783,2.052l1.772,1.622
		c0.035-0.104,0.054-0.748,0.054-1.934h1.724v0.58c0,0.873-0.248,1.629-0.746,2.267l1.977,1.8V62.123z M64.37,60.496l-2.477-2.272
		c-0.354,0.294-0.531,0.728-0.531,1.3c0,0.459,0.15,0.828,0.451,1.109s0.684,0.422,1.149,0.422
		C63.536,61.055,64.004,60.868,64.37,60.496z M63.467,55.785c0-0.612-0.297-0.918-0.892-0.918c-0.243,0-0.449,0.078-0.618,0.236
		c-0.168,0.157-0.252,0.372-0.252,0.645c0,0.408,0.333,0.845,0.999,1.311C63.213,56.771,63.467,56.348,63.467,55.785z"/>
</g>
</svg>
